<svg width="23" height="23" viewBox="0 0 23 23" fill="none" xmlns="http://www.w3.org/2000/svg">
<path d="M14.8571 18.6786V16.3571C14.8571 16.2217 14.8136 16.1105 14.7266 16.0234C14.6395 15.9364 14.5283 15.8929 14.3929 15.8929H13V8.46429C13 8.32887 12.9565 8.21763 12.8694 8.13058C12.7824 8.04353 12.6711 8 12.5357 8H7.89286C7.75744 8 7.64621 8.04353 7.55915 8.13058C7.4721 8.21763 7.42857 8.32887 7.42857 8.46429V10.7857C7.42857 10.9211 7.4721 11.0324 7.55915 11.1194C7.64621 11.2065 7.75744 11.25 7.89286 11.25H9.28571V15.8929H7.89286C7.75744 15.8929 7.64621 15.9364 7.55915 16.0234C7.4721 16.1105 7.42857 16.2217 7.42857 16.3571V18.6786C7.42857 18.814 7.4721 18.9252 7.55915 19.0123C7.64621 19.0993 7.75744 19.1429 7.89286 19.1429H14.3929C14.5283 19.1429 14.6395 19.0993 14.7266 19.0123C14.8136 18.9252 14.8571 18.814 14.8571 18.6786ZM13 5.67857V3.35714C13 3.22173 12.9565 3.11049 12.8694 3.02344C12.7824 2.93638 12.6711 2.89286 12.5357 2.89286H9.75C9.61458 2.89286 9.50335 2.93638 9.41629 3.02344C9.32924 3.11049 9.28571 3.22173 9.28571 3.35714V5.67857C9.28571 5.81399 9.32924 5.92522 9.41629 6.01228C9.50335 6.09933 9.61458 6.14286 9.75 6.14286H12.5357C12.6711 6.14286 12.7824 6.09933 12.8694 6.01228C12.9565 5.92522 13 5.81399 13 5.67857ZM20.7913 6.12835C21.7876 7.83073 22.2857 9.69271 22.2857 11.7143C22.2857 13.7359 21.7876 15.6027 20.7913 17.3147C19.795 19.0171 18.4408 20.3664 16.7288 21.3627C15.0264 22.359 13.1644 22.8571 11.1429 22.8571C9.12128 22.8571 7.25446 22.359 5.54241 21.3627C3.84003 20.3664 2.4907 19.0171 1.49442 17.3147C0.49814 15.6027 0 13.7359 0 11.7143C0 9.69271 0.49814 7.83073 1.49442 6.12835C2.4907 4.41629 3.84003 3.06213 5.54241 2.06585C7.25446 1.06957 9.12128 0.571427 11.1429 0.571427C13.1644 0.571427 15.0264 1.06957 16.7288 2.06585C18.4408 3.06213 19.795 4.41629 20.7913 6.12835Z" fill="#BDBDBD"/>
</svg>
