<svg viewBox="0 0 71 68" fill="none" xmlns="http://www.w3.org/2000/svg">
<path d="M69.868 36.832C69.2395 30.51 66.4151 24.55 61.9149 20.0496C58.0691 16.2039 53.3618 13.7326 48.4088 12.6337V9.15973C50.4318 8.65644 51.9355 6.82526 51.9355 4.64871C51.9355 2.08536 49.8502 0 47.2868 0H37.4425C34.8791 0 32.7938 2.08536 32.7938 4.64871C32.7938 6.82512 34.2975 8.6563 36.3204 9.15973V12.6434C31.3825 13.7469 26.6908 16.2148 22.8559 20.0497C22.0167 20.889 21.2428 21.7694 20.5344 22.6843C20.5001 22.6817 20.4658 22.6791 20.4308 22.6791H10.6875C9.93251 22.6791 9.32025 23.2913 9.32025 24.0464C9.32025 24.8015 9.93251 25.4137 10.6875 25.4137H18.674C17.6715 27.092 16.8632 28.8545 16.2479 30.6689H1.36727C0.612262 30.6689 0 31.281 0 32.0362C0 32.7913 0.612262 33.4034 1.36727 33.4034H15.4753C15.0812 35.1332 14.8551 36.8935 14.7967 38.6588H8.75051C7.99551 38.6588 7.38324 39.2709 7.38324 40.0261C7.38324 40.7812 7.99551 41.3933 8.75051 41.3933H14.8403C14.9557 43.1631 15.2402 44.9236 15.694 46.6487H6.83634C6.08133 46.6487 5.46907 47.2608 5.46907 48.016C5.46907 48.7711 6.08133 49.3832 6.83634 49.3832H16.5666C17.9079 52.9314 20.0041 56.257 22.8559 59.1089C27.3605 63.6135 33.3267 66.4385 39.6553 67.0638C40.5585 67.1529 41.4624 67.1971 42.365 67.1971C47.7004 67.1971 52.9679 65.653 57.4375 62.7424C58.0703 62.3303 58.2493 61.4833 57.8372 60.8505C57.4251 60.2177 56.5781 60.0387 55.9453 60.4508C46.1615 66.8219 33.0586 65.4444 24.7895 57.1753C15.0871 47.4729 15.0871 31.686 24.7895 21.9835C34.4918 12.2812 50.2787 12.2812 59.9812 21.9835C68.2393 30.2418 69.6244 43.3335 63.2744 53.1124C62.8631 53.7458 63.0432 54.5927 63.6764 55.0038C64.31 55.4151 65.1566 55.235 65.5677 54.6017C68.9604 49.3767 70.4877 43.066 69.868 36.832ZM35.5283 4.64884C35.5283 3.59331 36.3869 2.73467 37.4425 2.73467H47.2868C48.3423 2.73467 49.201 3.59331 49.201 4.64884C49.201 5.70437 48.3423 6.56302 47.2868 6.56302H47.0415H37.6876H37.4425C36.3869 6.56302 35.5283 5.70424 35.5283 4.64884ZM39.0549 12.1733V9.29755H45.6742V12.1684C43.4762 11.907 41.2525 11.9086 39.0549 12.1733Z" fill="black"/>
<path d="M42.3855 18.3691C30.6901 18.3691 21.1752 27.884 21.1752 39.5794C21.1752 51.2749 30.6901 60.7897 42.3855 60.7897C54.0808 60.7897 63.5957 51.2749 63.5957 39.5794C63.5957 27.884 54.0808 18.3691 42.3855 18.3691ZM42.3855 58.0552C32.1978 58.0552 23.9097 49.7669 23.9097 39.5794C23.9097 29.3919 32.1978 21.1037 42.3855 21.1037C52.5731 21.1037 60.8612 29.3919 60.8612 39.5794C60.8612 49.7669 52.5731 58.0552 42.3855 58.0552Z" fill="black"/>
<path d="M51.0342 28.9969L44.2621 35.7688C43.6958 35.4888 43.0588 35.3306 42.3854 35.3306C41.7119 35.3306 41.075 35.4888 40.5087 35.7688L37.4779 32.738C36.9438 32.2041 36.0784 32.2041 35.5442 32.738C35.0103 33.2719 35.0103 34.1377 35.5442 34.6716L38.575 37.7024C38.2948 38.2687 38.1368 38.9057 38.1368 39.5791C38.1368 41.9218 40.0426 43.8278 42.3854 43.8278C44.7282 43.8278 46.6341 41.9218 46.6341 39.5791C46.6341 38.9057 46.4759 38.2687 46.1959 37.7024L52.7691 31.1291L52.9678 30.9305C53.5017 30.3965 53.5017 29.5308 52.9678 28.9969C52.4339 28.463 51.5684 28.463 51.0342 28.9969ZM42.3854 41.0934C41.5506 41.0934 40.8713 40.4141 40.8713 39.5793C40.8713 38.7444 41.5506 38.0651 42.3854 38.0651C43.2203 38.0651 43.8995 38.7444 43.8995 39.5793C43.8995 40.4141 43.2203 41.0934 42.3854 41.0934Z" fill="black"/>
<path d="M57.0041 38.2285H55.7374C54.9824 38.2285 54.3701 38.8406 54.3701 39.5958C54.3701 40.3509 54.9824 40.963 55.7374 40.963H57.0041C57.7591 40.963 58.3714 40.3509 58.3714 39.5958C58.3714 38.8406 57.7591 38.2285 57.0041 38.2285Z" fill="black"/>
<path d="M29.0333 38.1951H27.7667C27.0117 38.1951 26.3995 38.8072 26.3995 39.5623C26.3995 40.3174 27.0117 40.9296 27.7667 40.9296H29.0333C29.7883 40.9296 30.4006 40.3174 30.4006 39.5623C30.4006 38.8072 29.7883 38.1951 29.0333 38.1951Z" fill="black"/>
<path d="M42.4021 27.5944C43.1571 27.5944 43.7693 26.9823 43.7693 26.2271V24.9605C43.7693 24.2054 43.1571 23.5933 42.4021 23.5933C41.6471 23.5933 41.0349 24.2054 41.0349 24.9605V26.2271C41.0349 26.9823 41.6471 27.5944 42.4021 27.5944Z" fill="black"/>
<path d="M42.3687 51.564C41.6137 51.564 41.0015 52.1761 41.0015 52.9312V54.1978C41.0015 54.953 41.6137 55.5651 42.3687 55.5651C43.1237 55.5651 43.736 54.953 43.736 54.1978V52.9312C43.736 52.1761 43.1237 51.564 42.3687 51.564Z" fill="black"/>
<path d="M1.36725 46.6479C1.00766 46.6479 0.654911 46.7942 0.400603 47.0486C0.146295 47.3029 0 47.6556 0 48.0152C0 48.3761 0.146159 48.7275 0.400603 48.9818C0.655047 49.2361 1.00766 49.3824 1.36725 49.3824C1.72683 49.3824 2.07958 49.2361 2.33375 48.9818C2.58806 48.7275 2.73449 48.3748 2.73449 48.0152C2.73449 47.6556 2.5882 47.3029 2.33375 47.0486C2.07958 46.7942 1.72683 46.6479 1.36725 46.6479Z" fill="black"/>
<circle cx="42.1485" cy="39.252" r="26.2825" stroke="black" stroke-width="3.5"/>
</svg>
