<svg viewBox="0 0 57 57" fill="none" xmlns="http://www.w3.org/2000/svg">
<path d="M47.9454 9.05449C42.7513 3.86054 35.8455 1 28.5 1C21.1544 1 14.2484 3.86054 9.05449 9.05449C3.86043 14.2486 1 21.1545 1 28.5C1 35.8455 3.86043 42.7513 9.05449 47.9454C14.2486 53.1395 21.1544 56 28.5 56C35.8455 56 42.7513 53.1395 47.9454 47.9454C53.1395 42.7513 56 35.8455 56 28.5C56 21.1545 53.1395 14.2487 47.9454 9.05449ZM28.5 52.7773C15.1134 52.7773 4.22266 41.8866 4.22266 28.5C4.22266 15.1134 15.1134 4.22266 28.5 4.22266C41.8866 4.22266 52.7773 15.1134 52.7773 28.5C52.7773 41.8866 41.8866 52.7773 28.5 52.7773Z" fill="black" stroke="black"/>
<path d="M41.6382 19.6764C41.009 19.0473 39.9887 19.0473 39.3595 19.6765L25.1306 33.9055L17.6403 26.4153C17.0112 25.7861 15.9909 25.7861 15.3616 26.4153C14.7323 27.0444 14.7323 28.0647 15.3616 28.694L23.9911 37.3235C24.3058 37.6382 24.7182 37.7954 25.1304 37.7954C25.5427 37.7954 25.9552 37.6381 26.2698 37.3235L41.6382 21.9551C42.2675 21.3259 42.2675 20.3057 41.6382 19.6764Z" fill="black" stroke="black" stroke-width="3"/>
</svg>
