<svg viewBox="0 0 76 65" fill="none" xmlns="http://www.w3.org/2000/svg">
<path d="M71.2122 29.226H65.4635C62.433 20.5727 58.0359 5.39957 50.0705 1.10521C46.0866 -1.03995 42.3209 0.458253 40.9046 3.50199C40.3021 4.7959 39.0988 5.47633 37.8222 5.47633C36.5283 5.47633 35.3348 4.78089 34.7398 3.50315C33.3738 0.56329 29.6981 -1.07227 25.8539 0.793561C17.7609 4.72376 13.2351 20.5075 10.181 29.226H4.43229C1.98357 29.226 0 31.209 0 33.6583C0 36.1019 1.98818 38.0906 4.43229 38.0906H71.2122C73.6609 38.0906 75.6445 36.1071 75.6445 33.6583C75.6445 31.2142 73.6563 29.226 71.2122 29.226ZM15.3711 23.3163H49.6417C50.4577 23.3163 51.1191 22.6543 51.1191 21.8389C51.1191 21.0228 50.4577 20.3614 49.6417 20.3614H16.4041C20.8577 8.05894 25.0182 4.48425 27.1443 3.45178C29.4638 2.3264 31.3729 3.26826 32.0608 4.74915C33.1447 7.07726 35.3868 8.43119 37.8222 8.43119C40.2635 8.43119 42.5027 7.07207 43.5836 4.74915C44.2918 3.22613 46.2107 2.38295 48.6687 3.70629C50.8046 4.85823 54.9524 8.55181 59.2398 20.3614H43.732C42.9159 20.3614 42.2545 21.0228 42.2545 21.8389C42.2545 22.6549 42.9159 23.3163 43.732 23.3163H60.274C61.0208 25.4701 61.7964 27.6926 62.3332 29.226H13.3119C13.8469 27.6967 14.6208 25.4794 15.3711 23.3163ZM71.2122 35.1358H4.43229C3.6174 35.1358 2.95486 34.4726 2.95486 33.6583C2.95486 32.8423 3.61624 32.1809 4.43229 32.1809H71.2122C72.0271 32.1809 72.6896 32.8434 72.6896 33.6583C72.6896 34.4738 72.0277 35.1358 71.2122 35.1358Z" fill="black"/>
<path d="M34.8674 44.0003H11.2285C10.4124 44.0003 9.75104 44.6617 9.75104 45.4778V51.3875C9.75104 58.7192 15.7162 64.6844 23.0479 64.6844C28.6033 64.6844 33.5204 61.2672 35.4762 56.1193C36.9617 55.4418 38.6827 55.4418 40.1682 56.1193C42.1241 61.2672 47.0412 64.6838 52.5965 64.6838C59.9283 64.6838 65.8934 58.7192 65.8934 51.3869V45.4772C65.8934 44.6611 65.232 43.9998 64.416 43.9998H40.7771C39.961 43.9998 39.2997 44.6611 39.2997 45.4772V46.9546H36.3448V45.4772C36.3448 44.6617 35.6834 44.0003 34.8674 44.0003ZM23.0479 61.7295C17.3454 61.7295 12.7059 57.09 12.7059 51.3875V46.9552H33.3899V51.3875C33.3899 57.105 28.7753 61.7295 23.0479 61.7295ZM42.2545 46.9552H62.9386V51.3875C62.9386 57.09 58.2991 61.7295 52.5965 61.7295C46.8548 61.7295 42.2545 57.0912 42.2545 51.3875V46.9552ZM39.2997 49.9101V51.3875C39.2997 51.8596 39.3268 52.3299 39.3758 52.7968C38.3491 52.6093 37.2953 52.6093 36.2686 52.7968C36.3177 52.3299 36.3448 51.8596 36.3448 51.3875V49.9101H39.2997Z" fill="black"/>
<path d="M23.0479 55.8196C20.6038 55.8196 18.6156 53.8309 18.6156 51.3873C18.6156 50.5713 17.9542 49.9099 17.1382 49.9099C16.3221 49.9099 15.6608 50.5713 15.6608 51.3873C15.6608 55.4601 18.9746 58.7745 23.0479 58.7745C23.864 58.7745 24.5254 58.1125 24.5254 57.2971C24.5254 56.481 23.864 55.8196 23.0479 55.8196Z" fill="black"/>
<path d="M52.5966 58.7745C56.6699 58.7745 59.9837 55.4601 59.9837 51.3873C59.9837 50.5713 59.3223 49.9099 58.5063 49.9099C57.6902 49.9099 57.0289 50.5713 57.0289 51.3873C57.0289 53.8309 55.0407 55.8196 52.5966 55.8196C51.7805 55.8196 51.1191 56.481 51.1191 57.2971C51.1191 58.1125 51.7805 58.7745 52.5966 58.7745Z" fill="black"/>
</svg>
