<svg width="15" height="9" viewBox="0 0 15 9" fill="none" xmlns="http://www.w3.org/2000/svg">
<path d="M7.69085 8.48772C7.59412 8.58445 7.48289 8.63281 7.35714 8.63281C7.2314 8.63281 7.12016 8.58445 7.02344 8.48772L0.262277 1.72656C0.165551 1.62984 0.117188 1.5186 0.117188 1.39286C0.117188 1.26711 0.165551 1.15588 0.262277 1.05915L0.987723 0.333706C1.08445 0.236979 1.19568 0.188616 1.32143 0.188616C1.44717 0.188616 1.55841 0.236979 1.65513 0.333706L7.35714 6.03571L13.0592 0.333705C13.1559 0.236979 13.2671 0.188616 13.3929 0.188616C13.5186 0.188616 13.6298 0.236979 13.7266 0.333705L14.452 1.05915C14.5487 1.15588 14.5971 1.26711 14.5971 1.39286C14.5971 1.5186 14.5487 1.62984 14.452 1.72656L7.69085 8.48772Z" fill="black"/>
</svg>
