<svg width="30" height="39" viewBox="0 0 30 39" fill="none" xmlns="http://www.w3.org/2000/svg">
<path d="M23.0217 24.7552H20.2634V22.1001C20.9268 21.3275 21.4391 20.4761 21.8687 19.6218C22.0368 19.5921 22.2269 19.5374 22.3942 19.4584C23.1626 19.0949 23.8704 18.2094 24.2695 17.0895C24.7297 15.7988 24.68 14.4414 24.17 13.6903C24.2382 12.2961 24.197 8.41066 21.7292 5.68586C21.3197 5.23379 20.8659 4.84226 20.3689 4.5084C19.9386 1.92624 17.7903 0 15.1275 0C12.5069 0 10.1169 1.8804 9.64559 4.40976C8.70694 4.94221 7.91571 5.63214 7.29234 6.47627C5.92949 8.32213 5.5021 10.9313 6.04373 13.6903C5.34088 14.3831 5.18975 15.6023 5.71944 17.0896C5.98601 17.8372 6.39589 18.5004 6.87344 18.9573C7.26766 19.3341 7.70129 19.562 8.13213 19.6278C8.58248 20.5225 9.11735 21.4135 9.7808 22.2136V24.7552H6.97827C3.01682 24.7552 0 31.4998 0 34.8586C0 35.2341 0.219203 35.5921 0.562603 35.7517C5.88636 38.2254 10.906 39 15.0832 39C17.282 39 19.2477 38.7917 20.9004 38.5041C26.1056 37.5983 29.3648 35.8095 29.5011 35.7337C29.8092 35.5622 30 35.2075 30 34.8576C30 31.4989 26.983 24.7552 23.0217 24.7552ZM8.22647 15.2916C8.65506 14.7946 9.87368 13.3091 10.6216 11.6683C12.1807 13.2751 15.5233 15.1734 22.6254 15.1835C22.6538 15.4521 22.6323 15.8925 22.4352 16.4452C22.1721 17.1829 21.7922 17.5728 21.6189 17.6853C21.4167 17.6196 21.197 17.6204 20.9932 17.6903C20.7371 17.778 20.5294 17.9667 20.4194 18.2119C19.3661 20.5578 17.2999 23.2973 15 23.2973C13.7884 23.2973 12.6685 22.5376 11.7063 21.4758C12.1676 21.5626 12.5898 21.5915 12.9404 21.5915C12.9838 21.5915 13.0257 21.6001 13.0668 21.5995C13.3142 21.9152 13.7002 22.1285 14.1351 22.1285H15.865C16.6119 22.1285 17.2115 21.5106 17.2115 20.7712V20.3499C17.2115 19.6106 16.6118 18.9763 15.865 18.9763H14.135C13.6414 18.9763 13.2108 19.2565 12.9748 19.6472C12.5787 19.6543 12.0104 19.6194 11.4019 19.3944C9.90951 18.8428 8.82782 17.4284 8.22647 15.2916ZM15.1279 1.93662C16.2965 1.93662 17.201 2.5157 17.8372 3.41157C17.0321 3.21075 16.0175 3.10739 15.0886 3.10739V3.10778C14.0271 3.11605 13.0189 3.2336 12.0937 3.45531C12.7274 2.535 13.9443 1.93662 15.1279 1.93662ZM8.8525 7.61906C10.0799 5.95656 12.1693 5.0662 15.0885 5.0444V5.044C17.2115 5.044 19.0872 5.69269 20.2496 6.97195C21.9941 8.89228 22.228 11.8075 22.2216 13.2449C17.0397 13.1815 14.3159 12.0505 12.931 11.0972C11.5327 10.1349 11.243 9.20185 11.2112 9.08601C11.1306 8.59007 10.6811 8.25791 10.1771 8.29481C9.66655 8.33277 9.27631 8.77434 9.27631 9.28118C9.27631 10.1739 8.59867 11.4563 7.8499 12.5631C7.58213 10.6014 7.91545 8.88808 8.8525 7.61906ZM10.7608 26.7253C11.301 26.7253 11.6384 26.3242 11.6384 25.7894V24.096C12.7 24.797 13.7653 25.2338 14.9557 25.2338C16.1817 25.2338 17.3441 24.771 18.4056 24.0322V25.7894C18.4056 26.3242 18.829 26.7253 19.3695 26.7253H20.4168L15 30.9186L9.58322 26.7253H10.7608ZM20.5615 36.6008C16.1646 37.3661 9.42001 37.5656 1.9922 34.2861C2.29181 31.5799 4.43342 27.4151 6.50005 26.8296L14.3975 32.9432C14.5746 33.0802 14.7872 33.1486 15.0001 33.1486C15.213 33.1486 15.4257 33.0802 15.6028 32.9432L23.5002 26.8296C25.5739 27.4172 27.7232 31.6091 28.011 34.3143C26.9318 34.8269 24.2685 35.9557 20.5615 36.6008Z" fill="#FFCB05"/>
</svg>
