<svg viewBox="0 0 49 59" fill="none" xmlns="http://www.w3.org/2000/svg">
<path d="M8.8914 22.704C9.61276 22.704 10.1977 22.119 10.1977 21.3971C10.1977 20.6757 9.61276 20.0907 8.8914 20.0907V14.8635H15.4249C16.1463 14.8635 16.7313 14.2786 16.7313 13.5572C16.7313 12.8352 16.1463 12.2502 15.4249 12.2502H8.8914C7.44808 12.2502 6.27811 13.4202 6.27811 14.8635V20.0907C6.27811 21.534 7.44808 22.704 8.8914 22.704Z" fill="black"/>
<path d="M13.7351 17.8603C13.2225 17.365 12.4072 17.3722 11.9036 17.8758C11.3994 18.3801 11.3922 19.1947 11.8874 19.7073L14.5007 22.3212C15.011 22.8309 15.8382 22.8309 16.3484 22.3212L22.8819 15.7877C23.3772 15.2751 23.37 14.4598 22.8658 13.9562C22.3616 13.4519 21.5469 13.4448 21.0343 13.94L15.4249 19.5494L13.7351 17.8603Z" fill="black"/>
<path d="M40.2513 16.1705H41.5576C42.2796 16.1705 42.8645 15.5856 42.8645 14.8636C42.8645 14.1422 42.2796 13.5573 41.5576 13.5573H40.2513C39.5293 13.5573 38.9443 14.1422 38.9443 14.8636C38.9443 15.5856 39.5293 16.1705 40.2513 16.1705Z" fill="black"/>
<path d="M28.4912 16.1705H35.0247C35.7461 16.1705 36.3311 15.5856 36.3311 14.8636C36.3311 14.1422 35.7461 13.5573 35.0247 13.5573H28.4912C27.7693 13.5573 27.1843 14.1422 27.1843 14.8636C27.1843 15.5856 27.7693 16.1705 28.4912 16.1705Z" fill="black"/>
<path d="M28.4912 21.397H38.9444C39.6663 21.397 40.2513 20.812 40.2513 20.0906C40.2513 19.3687 39.6663 18.7837 38.9444 18.7837H28.4912C27.7693 18.7837 27.1843 19.3687 27.1843 20.0906C27.1843 20.812 27.7693 21.397 28.4912 21.397Z" fill="black"/>
<path d="M8.8914 35.7704C9.61276 35.7704 10.1977 35.1855 10.1977 34.4635C10.1977 33.7421 9.61276 33.1571 8.8914 33.1571V27.9306H15.4249C16.1463 27.9306 16.7313 27.3456 16.7313 26.6236C16.7313 25.9022 16.1463 25.3173 15.4249 25.3173H8.8914C7.44808 25.3173 6.27811 26.4872 6.27811 27.9306V33.1571C6.27811 34.6005 7.44808 35.7704 8.8914 35.7704Z" fill="black"/>
<path d="M21.0343 27.0064L15.4249 32.6158L13.7351 30.9267C13.2225 30.4314 12.4072 30.4386 11.9036 30.9422C11.3994 31.4465 11.3922 32.2617 11.8874 32.7743L14.5007 35.3876C15.011 35.8979 15.8382 35.8979 16.3484 35.3876L22.8819 28.8541C23.3772 28.3415 23.37 27.5268 22.8658 27.0226C22.3616 26.5184 21.5469 26.5112 21.0343 27.0064Z" fill="black"/>
<path d="M41.5576 26.6235H40.2513C39.5293 26.6235 38.9443 27.2085 38.9443 27.9305C38.9443 28.6518 39.5293 29.2368 40.2513 29.2368H41.5576C42.2796 29.2368 42.8645 28.6518 42.8645 27.9305C42.8645 27.2085 42.2796 26.6235 41.5576 26.6235Z" fill="black"/>
<path d="M28.4912 29.2368H35.0247C35.7461 29.2368 36.3311 28.6518 36.3311 27.9305C36.3311 27.2085 35.7461 26.6235 35.0247 26.6235H28.4912C27.7693 26.6235 27.1843 27.2085 27.1843 27.9305C27.1843 28.6518 27.7693 29.2368 28.4912 29.2368Z" fill="black"/>
<path d="M28.4912 34.4634H38.9444C39.6663 34.4634 40.2513 33.8784 40.2513 33.157C40.2513 32.4351 39.6663 31.8501 38.9444 31.8501H28.4912C27.7693 31.8501 27.1843 32.4351 27.1843 33.157C27.1843 33.8784 27.7693 34.4634 28.4912 34.4634Z" fill="black"/>
<path d="M8.8914 48.8367C9.61276 48.8367 10.1977 48.2517 10.1977 47.5304C10.1977 46.8084 9.61276 46.2234 8.8914 46.2234V40.9968H15.4249C16.1463 40.9968 16.7313 40.4119 16.7313 39.6905C16.7313 38.9685 16.1463 38.3835 15.4249 38.3835H8.8914C7.44808 38.3835 6.27811 39.5535 6.27811 40.9968V46.2234C6.27811 47.6667 7.44808 48.8367 8.8914 48.8367Z" fill="black"/>
<path d="M21.0343 40.0733L15.4249 45.6827L13.7351 43.9929C13.2225 43.4977 12.4072 43.5048 11.9036 44.0091C11.3994 44.5127 11.3922 45.328 11.8874 45.8406L14.5007 48.4539C15.011 48.9641 15.8382 48.9641 16.3484 48.4539L22.8819 41.9209C23.3772 41.4077 23.37 40.5931 22.8658 40.0888C22.3616 39.5852 21.5469 39.578 21.0343 40.0733Z" fill="black"/>
<path d="M41.5576 39.6904H40.2513C39.5293 39.6904 38.9443 40.2754 38.9443 40.9968C38.9443 41.7187 39.5293 42.3037 40.2513 42.3037H41.5576C42.2796 42.3037 42.8645 41.7187 42.8645 40.9968C42.8645 40.2754 42.2796 39.6904 41.5576 39.6904Z" fill="black"/>
<path d="M28.4912 42.3037H35.0247C35.7461 42.3037 36.3311 41.7187 36.3311 40.9968C36.3311 40.2754 35.7461 39.6904 35.0247 39.6904H28.4912C27.7693 39.6904 27.1843 40.2754 27.1843 40.9968C27.1843 41.7187 27.7693 42.3037 28.4912 42.3037Z" fill="black"/>
<path d="M28.4912 47.5303H38.9444C39.6663 47.5303 40.2513 46.9453 40.2513 46.2233C40.2513 45.502 39.6663 44.917 38.9444 44.917H28.4912C27.7693 44.917 27.1843 45.502 27.1843 46.2233C27.1843 46.9453 27.7693 47.5303 28.4912 47.5303Z" fill="black"/>
<rect x="4.13439" y="4.74712" width="40.8844" height="49.3063" rx="2.14375" stroke="black" stroke-width="1.8375"/>
<rect x="0.91875" y="0.918994" width="47.1625" height="56.9625" rx="3.675" stroke="black" stroke-width="1.8375"/>
</svg>
