<svg viewBox="0 0 170 42" fill="none" xmlns="http://www.w3.org/2000/svg">
<g clip-path="url(#clip0)">
<path d="M16.1997 4.26453V19.495H19.8412L24.7703 4.26453H28.5087L22.8734 20.7688L28.7026 39.2116H24.7149L19.8412 22.1534H16.1997V39.1562H12.4613V22.1534H8.87522L3.98762 39.1562H0L5.82913 20.7688L0.193843 4.26453H3.93224L8.86138 19.495H12.4613V4.26453H16.1997Z" fill="white"/>
<path d="M46.7576 4.26453L54.1375 39.1562H50.1914L48.1007 28.1902H39.2254L37.1347 39.1562H33.2302L40.5685 4.26453H46.7576ZM39.8347 25.0334H47.5053L44.0161 7.03371H43.3238L39.8347 25.0334Z" fill="white"/>
<path d="M71.5695 4.26453L78.0493 39.1562H74.0617L68.731 7.0614H67.928L62.6112 39.1562H58.6235L65.0757 4.26453H71.5695Z" fill="white"/>
<path d="M85.3877 9.99675C86.9384 5.26145 89.9292 3.46149 93.5153 3.46149C97.8075 3.46149 100.341 5.89837 101.643 9.99675C102.335 12.1844 102.737 15.1336 102.737 21.7104C102.737 28.2872 102.335 31.2364 101.643 33.424C100.397 37.3147 97.9598 39.9593 93.6122 39.9593H93.5153C89.9292 39.9593 86.9384 38.1593 85.3877 33.424C84.6954 31.2364 84.2939 28.2872 84.2939 21.7104C84.2939 15.1336 84.6816 12.1983 85.3877 9.99675ZM88.6138 30.3779C89.3061 35.8055 92.1999 36.4563 93.5429 36.4563C94.886 36.4563 97.7798 35.8055 98.4721 30.3779C98.7496 27.4791 98.8513 24.5661 98.7767 21.655C98.849 18.7255 98.7473 15.7942 98.4721 12.8767C98.2782 11.1875 97.5721 6.79835 93.5429 6.79835C89.5138 6.79835 88.7661 11.2013 88.6138 12.8905C88.3386 15.808 88.2369 18.7393 88.3092 21.6688C88.2351 24.5754 88.3369 27.4837 88.6138 30.3779Z" fill="white"/>
<path d="M126.358 4.26453V7.55985H114.99V18.4704H118.382C119.673 18.3444 120.975 18.4926 122.204 18.9054C123.433 19.3183 124.561 19.9863 125.513 20.8658C126.454 21.9468 127.171 23.2029 127.625 24.562C128.079 25.9211 128.26 27.3564 128.158 28.7856C128.26 30.2148 128.079 31.6502 127.625 33.0093C127.171 34.3684 126.454 35.6245 125.513 36.7055C123.118 39.1008 120.085 39.1424 117.884 39.1424H111.196V4.26453H126.358ZM122.869 23.538C122.203 22.8898 121.402 22.3972 120.524 22.0955C119.645 21.7939 118.71 21.6907 117.787 21.7934H115.018V35.8193H117.787C118.71 35.9221 119.645 35.8189 120.524 35.5173C121.402 35.2156 122.203 34.723 122.869 34.0748C123.928 32.525 124.417 30.6558 124.253 28.7856C124.408 26.9293 123.919 25.0764 122.869 23.538Z" fill="white"/>
<path d="M147.943 4.26453L155.323 39.1562H151.391L149.3 28.1902H140.425L138.321 39.1562H134.374L141.754 4.26453H147.943ZM141.021 25.0334H148.691L145.202 7.03371H144.51L141.021 25.0334Z" fill="white"/>
<path d="M156.459 9.69211V8.76443C156.34 7.64276 156.582 6.51237 157.151 5.53834C157.447 5.11548 157.848 4.77612 158.313 4.553C158.779 4.32987 159.294 4.23052 159.809 4.26452C160.286 4.24586 160.76 4.3359 161.197 4.52781C161.634 4.71972 162.021 5.00847 162.329 5.37219C162.931 6.30952 163.209 7.4187 163.119 8.52905C163.163 9.56384 162.944 10.593 162.482 11.5198C161.903 12.5375 161.185 13.4695 160.349 14.2889C159.628 14.9909 158.987 15.7711 158.439 16.6151C158.1 17.1722 157.941 17.8198 157.982 18.4704V18.8304H162.883V20.3258H156.306V18.9412C156.269 18.129 156.401 17.318 156.694 16.5597C157.287 15.3937 158.085 14.3433 159.048 13.4582C159.786 12.7621 160.416 11.9594 160.917 11.0767C161.311 10.2734 161.483 9.37956 161.416 8.48752C161.452 7.88814 161.377 7.28717 161.194 6.71524C161.108 6.41833 160.924 6.15886 160.673 5.97819C160.423 5.79752 160.118 5.70604 159.809 5.71834C159.475 5.71088 159.147 5.81399 158.876 6.01173C158.606 6.20946 158.408 6.49079 158.314 6.81216C158.109 7.56466 158.039 8.34746 158.106 9.12443V9.69211H156.459Z" fill="#FFCB05"/>
<path d="M169.322 4.62451L164.96 14.1782V14.8289H168.297V11.8936H170V20.2842H168.297V16.2412H163.382V13.8459L167.535 4.66605L169.322 4.62451Z" fill="#FFCB05"/>
<path d="M93.266 30.4195L91.1337 29.8795L97.6552 0.844604L101.601 1.84151L93.266 30.4195Z" fill="#FFCB05"/>
<path d="M93.7506 31.2502L90.3168 30.3779L97.129 0L102.46 1.38459L93.7506 31.2502ZM91.9645 29.3672L92.7952 29.5749L100.743 2.33996L98.1675 1.6892L91.9645 29.3672Z" fill="#FFCB05"/>
<path d="M88.3369 40.4301L89.4999 36.4424L91.5353 36.9547L90.7322 41.0393L88.3369 40.4301Z" fill="#FFCB05"/>
<path d="M91.2722 41.8839L87.4784 40.9285L89.0291 35.5978L92.3521 36.4286L91.2722 41.8839ZM89.2091 39.9316L90.1922 40.1808L90.7322 37.4117L89.9983 37.2732L89.2091 39.9316Z" fill="#FFCB05"/>
</g>
<defs>
<clipPath id="clip0">
<rect width="170" height="41.8839" fill="white"/>
</clipPath>
</defs>
</svg>
