<svg width="251" height="64" viewBox="0 0 251 64" fill="none" xmlns="http://www.w3.org/2000/svg">
<path d="M45.9366 4.80056C42.9887 1.44052 37.6598 0 30.8429 0H11.0577C9.66301 0 8.47784 1.01435 8.25947 2.38971L0.0213859 54.6376C-0.14239 55.6678 0.655355 56.6012 1.69964 56.6012H13.9141L16.9818 37.1436L16.8867 37.7529C17.1051 36.3775 18.2815 35.3632 19.6744 35.3632H25.4788C36.8814 35.3632 45.8098 30.7317 48.4179 17.3338C48.4954 16.9376 48.5623 16.5519 48.6204 16.175C48.2911 16.0007 48.2911 16.0007 48.6204 16.175C49.397 11.223 48.6148 7.85242 45.9366 4.80056Z" fill="#003087"/>
<path d="M172.132 29.5065H165.558C164.93 29.5065 164.341 29.8182 163.989 30.3395L154.92 43.6951L151.077 30.8608C150.836 30.0577 150.096 29.5065 149.258 29.5065H142.797C142.017 29.5065 141.467 30.2743 141.719 31.0122L148.957 52.2608L142.149 61.8672C141.615 62.6209 142.155 63.6634 143.079 63.6634H149.646C150.267 63.6634 150.85 63.3587 151.206 62.848L173.067 31.294C173.59 30.5385 173.051 29.5065 172.132 29.5065ZM128.183 42.2368C127.551 45.9737 124.585 48.4832 120.801 48.4832C118.904 48.4832 117.384 47.8721 116.409 46.7169C115.442 45.5722 115.077 43.9397 115.384 42.1241C115.972 38.4189 118.987 35.8302 122.713 35.8302C124.571 35.8302 126.078 36.4466 127.073 37.6124C128.075 38.787 128.47 40.4282 128.183 42.2368ZM137.298 29.5064H130.757C130.197 29.5064 129.72 29.9131 129.632 30.4679L129.345 32.2958L128.889 31.6337C127.471 29.5786 124.314 28.89 121.162 28.89C113.936 28.89 107.764 34.3668 106.563 42.0466C105.937 45.8786 106.825 49.5398 108.998 52.095C110.993 54.4425 113.841 55.4199 117.234 55.4199C123.06 55.4199 126.29 51.6794 126.29 51.6794L125.997 53.4968C125.888 54.1871 126.422 54.8123 127.123 54.8123H133.011C133.947 54.8123 134.741 54.1343 134.887 53.2115L138.423 30.8218C138.532 30.1315 137.997 29.5064 137.298 29.5064ZM98.0493 29.6634C97.3026 34.5661 93.5587 34.5661 89.9362 34.5661H87.8758L89.3216 25.4123C89.4079 24.8594 89.8852 24.4526 90.4452 24.4526H91.3908C93.8563 24.4526 96.1844 24.4526 97.3854 25.8561C98.1039 26.6961 98.3205 27.9429 98.0493 29.6634ZM96.4732 16.8713H82.8146C81.8795 16.8713 81.0853 17.5511 80.9391 18.4739L75.4166 53.4972C75.3074 54.1875 75.841 54.8127 76.5401 54.8127H83.0629C83.9963 54.8127 84.7905 54.1329 84.9367 53.2119L86.4283 43.7622C86.5727 42.8394 87.3687 42.1597 88.302 42.1597H92.6236C101.621 42.1597 106.814 37.8064 108.17 29.1756C108.781 25.4035 108.195 22.4379 106.428 20.3617C104.486 18.0794 101.043 16.8713 96.4732 16.8713Z" fill="#002F86"/>
<path d="M242.428 17.8337L236.822 53.4981C236.713 54.1884 237.247 54.8135 237.946 54.8135H243.585C244.518 54.8135 245.314 54.1338 245.458 53.211L250.986 18.1877C251.095 17.4974 250.562 16.8722 249.861 16.8722H243.553C242.991 16.8722 242.514 17.279 242.428 17.8337ZM225.604 42.2368C224.972 45.9737 222.006 48.4832 218.222 48.4832C216.325 48.4832 214.805 47.8721 213.83 46.7169C212.861 45.5722 212.498 43.9397 212.805 42.1241C213.393 38.4189 216.408 35.8302 220.134 35.8302C221.992 35.8302 223.499 36.4466 224.494 37.6124C225.496 38.787 225.891 40.4282 225.604 42.2368ZM234.719 29.5064H228.178C227.618 29.5064 227.141 29.9131 227.053 30.4679L226.766 32.2958L226.308 31.6337C224.892 29.5786 221.735 28.89 218.583 28.89C211.357 28.89 205.185 34.3668 203.984 42.0466C203.358 45.8786 204.246 49.5398 206.419 52.095C208.414 54.4425 211.262 55.4199 214.655 55.4199C220.481 55.4199 223.711 51.6794 223.711 51.6794L223.418 53.4968C223.309 54.1871 223.843 54.8123 224.544 54.8123H230.433C231.368 54.8123 232.162 54.1343 232.308 53.2115L235.844 30.8218C235.953 30.1315 235.418 29.5064 234.719 29.5064ZM195.47 29.6634C194.723 34.5661 190.98 34.5661 187.357 34.5661H185.297L186.742 25.4123C186.829 24.8594 187.306 24.4526 187.866 24.4526H188.812C191.277 24.4526 193.605 24.4526 194.806 25.8561C195.525 26.6961 195.741 27.9429 195.47 29.6634ZM193.894 16.8713H180.235C179.3 16.8713 178.506 17.5511 178.36 18.4739L172.837 53.4972C172.728 54.1875 173.264 54.8127 173.961 54.8127H180.97C181.623 54.8127 182.18 54.3372 182.282 53.6926L183.849 43.7622C183.994 42.8394 184.79 42.1597 185.723 42.1597H190.044C199.042 42.1597 204.235 37.8064 205.591 29.1756C206.202 25.4035 205.615 22.4379 203.849 20.3617C201.907 18.0794 198.464 16.8713 193.894 16.8713Z" fill="#009CDE"/>
<path d="M45.9366 4.80056C42.9887 1.44052 37.6598 0 30.8429 0H11.0577C9.66301 0 8.47784 1.01435 8.25947 2.38971L0.0213859 54.6376C-0.14239 55.6678 0.655355 56.6012 1.69964 56.6012H13.9141L16.9818 37.1436L16.8867 37.7529C17.1051 36.3775 18.2815 35.3632 19.6744 35.3632H25.4788C36.8814 35.3632 45.8098 30.7317 48.4179 17.3338C48.4954 16.9376 48.5623 16.5519 48.6204 16.175C48.2911 16.0007 48.2911 16.0007 48.6204 16.175C49.397 11.223 48.6148 7.85242 45.9366 4.80056Z" fill="#003087"/>
<path d="M20.2785 16.2409C20.4088 15.4132 20.9406 14.7352 21.6556 14.3918C21.9814 14.2369 22.3442 14.1506 22.7245 14.1506H38.2357C40.0724 14.1506 41.7859 14.2703 43.3514 14.5222C43.8005 14.5943 44.2355 14.6771 44.6581 14.7722C45.0808 14.8655 45.4911 14.9712 45.8891 15.0874C46.0881 15.1455 46.2836 15.2055 46.4755 15.2688C47.2451 15.5259 47.9618 15.8253 48.6204 16.1758C49.3971 11.222 48.6148 7.85315 45.9366 4.80129C42.9869 1.44125 37.6598 0.000732422 30.8429 0.000732422H11.056C9.66301 0.000732422 8.47784 1.01508 8.25947 2.39045L0.0213871 54.6366C-0.142388 55.6685 0.655357 56.6001 1.69788 56.6001H13.9141L16.9818 37.1425L20.2785 16.2409Z" fill="#002F86"/>
<path d="M48.6202 16.175C48.5603 16.5537 48.4951 16.9376 48.4177 17.3338C45.8096 30.7299 36.8812 35.3632 25.4785 35.3632H19.6724C18.2794 35.3632 17.1031 36.3775 16.8865 37.7529L13.9139 56.5994L13.0703 61.9459C12.9277 62.8475 13.625 63.6646 14.5373 63.6646H24.834C26.0526 63.6646 27.0899 62.7771 27.2801 61.5743L27.3805 61.0495L29.3212 48.7505L29.4463 48.0708C29.6364 46.868 30.6737 45.9804 31.8923 45.9804H33.4332C43.4077 45.9804 51.2178 41.9283 53.5001 30.2087C54.4528 25.3113 53.9598 21.2222 51.4397 18.3499C50.6754 17.48 49.7262 16.7615 48.6203 16.175" fill="#009CDE"/>
<path d="M45.89 15.0865C45.4921 14.9703 45.0817 14.8646 44.6591 14.7713C44.2364 14.6779 43.7997 14.5952 43.3524 14.523C41.7851 14.2694 40.0734 14.1497 38.2349 14.1497H22.7255C22.3434 14.1497 21.9806 14.236 21.6566 14.3927C20.9398 14.7361 20.4097 15.4123 20.2794 16.2418L16.9828 37.1434L16.8877 37.7527C17.1043 36.3773 18.2807 35.363 19.6736 35.363H25.4797C36.8824 35.363 45.8108 30.7315 48.4189 17.3336C48.4964 16.9374 48.5615 16.5535 48.6214 16.1748C47.961 15.8262 47.246 15.525 46.4765 15.2697C46.2845 15.2063 46.089 15.1446 45.89 15.0865Z" fill="#012069"/>
</svg>
