<svg viewBox="0 0 49 49" xmlns="http://www.w3.org/2000/svg">
<g clip-path="url(#clip0)">
<path d="M45.9375 2.02265C46.2167 2.02265 46.4845 2.13426 46.6819 2.33293C46.8793 2.5316 46.9902 2.80105 46.9902 3.08201V36.9814C46.9902 37.2623 46.8793 37.5318 46.6819 37.7305C46.4845 37.9291 46.2167 38.0407 45.9375 38.0407H40.8652V45.3532L29.7187 38.3479L29.2306 38.0407H3.0625C2.7833 38.0407 2.51553 37.9291 2.3181 37.7305C2.12068 37.5318 2.00977 37.2623 2.00977 36.9814V3.08201C2.00977 2.80105 2.12068 2.5316 2.3181 2.33293C2.51553 2.13426 2.7833 2.02265 3.0625 2.02265H45.9375ZM45.9375 0.000244141H3.0625C2.25027 0.000244141 1.47132 0.324929 0.896986 0.902871C0.322655 1.48081 0 2.26467 0 3.08201L0 36.9814C0 37.7987 0.322655 38.5826 0.896986 39.1605C1.47132 39.7385 2.25027 40.0631 3.0625 40.0631H28.6545L42.875 49.0002V40.0631H45.9375C46.7497 40.0631 47.5287 39.7385 48.103 39.1605C48.6773 38.5826 49 37.7987 49 36.9814V3.08201C49 2.26467 48.6773 1.48081 48.103 0.902871C47.5287 0.324929 46.7497 0.000244141 45.9375 0.000244141V0.000244141Z" fill="white"/>
<path d="M26.0312 24.6543H22.9688V10.7864C22.9688 10.3777 23.1301 9.98577 23.4172 9.6968C23.7044 9.40783 24.0939 9.24548 24.5 9.24548C24.9061 9.24548 25.2956 9.40783 25.5828 9.6968C25.8699 9.98577 26.0312 10.3777 26.0312 10.7864V24.6543Z" fill="white"/>
<path d="M22.9688 27.7361H26.0312V30.8179H22.9688V27.7361Z" fill="white"/>
</g>
<defs>
<clipPath id="clip0">
<rect width="49" height="49" transform="translate(0 0.000244141)"/>
</clipPath>
</defs>
</svg>
