<svg width="191" height="70" viewBox="0 0 191 70" fill="none" xmlns="http://www.w3.org/2000/svg">
<path d="M126.85 15.3328V47.6507C126.85 48.1627 126.464 48.5466 125.95 48.5466H119.328C118.813 48.5466 118.428 48.1627 118.428 47.6507V15.3328C118.428 14.8208 118.813 14.4368 119.328 14.4368H125.95C126.464 14.4368 126.85 14.8208 126.85 15.3328ZM178.607 14.4368H171.214C170.828 14.4368 170.506 14.6928 170.378 15.0768L164.527 34.2116L158.097 15.0768C157.969 14.6928 157.647 14.5008 157.262 14.5008H152.054C151.668 14.5008 151.346 14.7568 151.218 15.0768L144.788 34.2116L138.809 15.0768C138.68 14.6928 138.359 14.4368 137.973 14.4368H130.579C130.322 14.4368 130.001 14.5648 129.872 14.8208C129.679 15.0768 129.679 15.3328 129.743 15.5888L140.674 47.9707C140.802 48.3546 141.124 48.5466 141.509 48.5466H147.424C147.81 48.5466 148.132 48.2906 148.26 47.9707L154.626 29.0919L160.991 47.9707C161.119 48.3546 161.441 48.5466 161.827 48.5466H167.742C168.127 48.5466 168.449 48.2906 168.577 47.9707L179.508 15.5888C179.572 15.3328 179.572 15.0128 179.379 14.8208C179.122 14.5648 178.865 14.4368 178.607 14.4368ZM189.73 14.4368H183.108C182.594 14.4368 182.208 14.8208 182.208 15.3328V47.6507C182.208 48.1627 182.594 48.5466 183.108 48.5466H189.73C190.245 48.5466 190.631 48.1627 190.631 47.6507V15.3328C190.631 14.8208 190.245 14.4368 189.73 14.4368ZM114.634 47.3947C115.02 47.8427 114.698 48.4826 114.12 48.4826H106.019C105.697 48.4826 105.376 48.3546 105.183 48.0987L103.833 46.4348C101.004 48.2267 97.6603 49.3146 94.1241 49.3146C84.2227 49.3146 76.1859 41.3151 76.1859 31.4597C76.1859 21.6044 84.2227 13.6049 94.1241 13.6049C104.026 13.6049 112.062 21.6044 112.062 31.4597C112.062 34.9795 111.034 38.3073 109.233 41.1231L114.634 47.3947ZM98.4962 40.2272L94.96 35.9394C94.5742 35.4915 94.8957 34.7875 95.4743 34.7875H102.933C103.318 33.7636 103.511 32.6117 103.511 31.4597C103.511 26.1481 99.5249 21.5404 94.0598 21.5404C88.5948 21.5404 84.6085 26.1481 84.6085 31.4597C84.6085 36.7714 88.5948 41.3151 94.0598 41.3151C95.6672 41.3791 97.2103 40.9311 98.4962 40.2272ZM55.6758 47.2667C55.8687 48.6106 55.4187 49.1866 55.0329 49.1866C54.5828 49.1866 54.0042 48.6106 53.2969 47.5867C52.5897 46.4988 52.3325 45.2828 52.7183 44.7069C52.9112 44.3229 53.4255 44.1309 54.0042 44.3229C55.0972 44.7069 55.5472 46.4348 55.6758 47.2667ZM49.3749 50.2105C50.7251 51.3624 51.1752 52.7704 50.468 53.7303C50.0822 54.2423 49.4392 54.5622 48.6034 54.5622C47.8319 54.5622 47.0603 54.3063 46.4817 53.7943C45.2601 52.7064 44.8743 50.9145 45.7101 49.9545C46.0316 49.5706 46.546 49.3786 47.1889 49.3786C47.8962 49.3146 48.6677 49.6346 49.3749 50.2105ZM47.0603 61.3458C52.9755 61.3458 59.4049 63.3937 66.5417 69.6653C67.2489 70.3052 68.2133 69.5373 67.5704 68.7053C60.5622 59.9379 54.1328 58.274 47.7033 56.8661C39.795 55.1382 35.7444 50.7225 32.9155 45.8588C32.3368 44.8989 32.0796 45.0909 32.0796 46.3068C32.0153 47.8427 32.1439 49.8265 32.4654 51.8104C32.1439 51.8104 31.8225 51.8104 31.501 51.8104C20.2494 51.8104 11.0552 42.723 11.0552 31.4597C11.0552 20.1965 20.1851 11.1731 31.4367 11.1731C42.6883 11.1731 51.8824 20.2605 51.8824 31.5237C51.8824 32.2917 51.8181 33.1236 51.7538 33.8916C50.2751 33.6356 47.3175 33.5716 45.2601 33.7636C44.4885 33.8276 44.6171 34.2116 45.1958 34.2756C51.9467 35.4915 56.576 39.6512 57.669 47.2027C57.669 47.3947 57.9262 47.4587 57.9904 47.2667C60.7551 42.659 62.3625 37.2834 62.3625 31.4597C62.3625 14.5008 48.5391 0.677734 31.4367 0.677734C14.3986 0.74173 0.575195 14.5008 0.575195 31.4597C0.575195 48.4186 14.3986 62.2417 31.501 62.2417C35.9373 62.2417 40.438 61.3458 47.0603 61.3458Z" fill="#FF8C00"/>
</svg>
