<svg xmlns="http://www.w3.org/2000/svg" display="none">

	<symbol id='arrow-right' viewBox="0 0 9 15">
		<path
			d="M8.48772 7.30915C8.58445 7.40588 8.63281 7.51711 8.63281 7.64286C8.63281 7.7686 8.58445 7.87984 8.48772 7.97656L1.72656 14.7377C1.62984 14.8344 1.5186 14.8828 1.39286 14.8828C1.26711 14.8828 1.15588 14.8344 1.05915 14.7377L0.333705 14.0123C0.236979 13.9156 0.188616 13.8043 0.188616 13.6786C0.188616 13.5528 0.236979 13.4416 0.333705 13.3449L6.03571 7.64286L0.333705 1.94085C0.236979 1.84412 0.188616 1.73289 0.188616 1.60714C0.188616 1.4814 0.236979 1.37016 0.333705 1.27344L1.05915 0.54799C1.15588 0.451264 1.26711 0.4029 1.39286 0.4029C1.5186 0.4029 1.62984 0.451264 1.72656 0.54799L8.48772 7.30915Z" />
	</symbol>

	<symbol id="problem-icon1" viewBox="0 0 52 53">
		<path
			d="M20.8373 9.28461C20.8373 8.59179 21.3989 8.03019 22.0918 8.03019H24.2634V5.85853C24.2634 5.16571 24.825 4.60411 25.5178 4.60411C26.2107 4.60411 26.7723 5.16571 26.7723 5.85853V8.03019H28.9439C29.6367 8.03019 30.1984 8.59179 30.1984 9.28461C30.1984 9.97743 29.6367 10.539 28.9439 10.539H26.7723V12.7108C26.7723 13.4036 26.2107 13.9652 25.5178 13.9652C24.825 13.9652 24.2634 13.4036 24.2634 12.7108V10.539H22.0918C21.3989 10.539 20.8373 9.97743 20.8373 9.28461ZM51.0342 51.7456C51.0342 52.4384 50.4726 53 49.7798 53H1.25442C0.561605 53 0 52.4384 0 51.7456C0 51.0528 0.561605 50.4912 1.25442 50.4912H6.06576V9.28449C6.06576 8.59167 6.62737 8.03006 7.32019 8.03006H16.3175C16.9318 3.50147 20.8235 0 25.5178 0C30.212 0 34.1037 3.5016 34.7179 8.03019L43.7153 8.03006C44.0479 8.03006 44.3671 8.16228 44.6023 8.39748C44.8375 8.63269 44.9697 8.95181 44.9697 9.28449V50.4912H49.7798C50.4726 50.4912 51.0342 51.0528 51.0342 51.7456ZM18.742 9.28461C18.742 13.0208 21.7815 16.0604 25.5178 16.0604C29.254 16.0604 32.2935 13.0208 32.2935 9.28461C32.2935 5.54844 29.254 2.50885 25.5178 2.50885C21.7817 2.50885 18.742 5.54844 18.742 9.28461ZM24.2634 41.4557H17.793V50.4912H24.2628L24.2634 41.4557ZM33.2427 41.4557H26.7721L26.7715 50.4912H33.2426V41.4557H33.2427ZM42.461 10.5389H34.718C34.1039 15.0675 30.2121 18.5692 25.518 18.5692C20.8237 18.5692 16.9318 15.0675 16.3177 10.5389H8.57461V50.4912H15.2841V40.2012C15.2841 39.5084 15.8457 38.9468 16.5386 38.9468H25.5178H34.4971C35.1899 38.9468 35.7516 39.5084 35.7516 40.2012V50.4912H42.4608V10.5389H42.461ZM34.1392 21.5973H38.4138C39.1066 21.5973 39.6682 22.1589 39.6682 22.8517V34.0346C39.6682 34.7274 39.1066 35.289 38.4138 35.289H34.1392C33.4464 35.289 32.8848 34.7274 32.8848 34.0346V22.8517C32.8848 22.1589 33.4464 21.5973 34.1392 21.5973ZM35.3937 32.7802H37.1594V24.1061H35.3937V32.7802ZM28.9093 22.8517V34.0346C28.9093 34.7274 28.3477 35.289 27.6549 35.289H23.3806C22.6877 35.289 22.1261 34.7274 22.1261 34.0346V22.8517C22.1261 22.1589 22.6877 21.5973 23.3806 21.5973H27.6549C28.3477 21.5973 28.9093 22.1589 28.9093 22.8517ZM26.4005 24.1061H24.635V32.7802H26.4005V24.1061ZM18.1509 22.8517V34.0346C18.1509 34.7274 17.5893 35.289 16.8965 35.289H12.622C11.9292 35.289 11.3676 34.7274 11.3676 34.0346V22.8517C11.3676 22.1589 11.9292 21.5973 12.622 21.5973H16.8965C17.5893 21.5973 18.1509 22.1589 18.1509 22.8517ZM15.642 24.1061H13.8764V32.7802H15.642V24.1061Z" />
	</symbol>

	<symbol id='problem-icon2' viewBox="0 0 66 40">
		<path
			d="M65.4219 14.5118L33.3985 0.0859855C33.1448 -0.0286618 32.8552 -0.0286618 32.6014 0.0859855L19.6183 5.93452C19.1263 6.15621 18.9058 6.73756 19.1258 7.23369C19.3459 7.72982 19.9234 7.95201 20.4159 7.73033L32.9997 2.06137L44.5202 7.25094V14.496C38.4062 12.2437 33.2586 12.0727 33.0269 12.0661C33.0088 12.0656 32.9907 12.0656 32.9726 12.0661C32.7243 12.0727 26.8198 12.269 20.1339 15.0201C17.4667 16.1168 15.0301 17.4825 12.892 19.0784C12.7319 19.1981 12.6151 19.3625 12.5516 19.5471L3.36815 15.4097L22.0538 6.99246C22.5462 6.77078 20.926 7.20679 20.7054 6.71066C20.4854 6.21454 20.9078 5.35354 20.4159 5.57523L0.577556 14.5118C0.226088 14.67 0 15.0221 0 15.4097C0 15.7977 0.226088 16.1493 0.577556 16.3076L12.4968 21.6777V34.3879C12.4968 34.9312 12.9343 35.3715 13.4731 35.3715C14.0124 35.3715 14.4495 34.9312 14.4495 34.3879V21.0609V21.0588V20.3694C16.3609 18.9947 18.5191 17.8086 20.8721 16.8412C26.9911 14.3236 32.5647 14.0511 33.0003 14.0334C33.4267 14.0501 38.6323 14.3007 44.5202 16.5977V26.3722C43.0926 26.7973 42.0473 28.1304 42.0473 29.7051C42.0473 31.1519 42.9295 32.3947 44.1808 32.9167L43.498 34.7272C39.0427 35.4998 35.5149 36.5631 32.9997 37.8953C27.2066 34.8292 17.5054 33.9628 14.45 33.7593V31.0002C14.45 30.4569 14.0124 30.0166 13.4736 30.0166C12.9343 30.0166 12.4973 30.4569 12.4973 31.0002V34.6887C12.4973 35.2147 12.9087 35.648 13.4308 35.6713C13.5582 35.6769 26.2473 36.274 32.5169 39.8711C32.6664 39.9569 32.8331 40 33.0003 40C33.1669 40 33.3336 39.9569 33.4836 39.8706C35.5914 38.6603 38.7521 37.6335 42.6883 36.8736L42.1112 38.4046C41.9969 38.7069 42.0377 39.0463 42.22 39.3126C42.4023 39.5784 42.7029 39.7377 43.0236 39.7377H47.9704C48.2916 39.7377 48.5917 39.5784 48.774 39.3126C48.9563 39.0463 48.9971 38.7069 48.8833 38.4046L48.0006 36.0645C50.6572 35.7581 52.5475 35.6718 52.5692 35.6708C53.0913 35.648 53.5032 35.2147 53.5032 34.6882V30.9997C53.5032 30.4569 53.0657 30.016 52.5269 30.016C51.9876 30.016 51.5505 30.4569 51.5505 30.9997V33.7603C50.6391 33.8222 49.1245 33.9445 47.2851 34.1682L46.8133 32.9167C48.064 32.3947 48.9467 31.1519 48.9467 29.7051C48.9467 28.1299 47.9014 26.7973 46.4734 26.3722V17.4312C48.3072 18.2789 50.0102 19.2615 51.5505 20.3694V21.0588V21.0609V30.3879C51.5505 30.9312 51.9876 31.3715 52.5269 31.3715C53.0662 31.3715 53.5032 30.9312 53.5032 30.3879V21.6777L65.4224 16.3076C65.7739 16.1493 66 15.7977 66 15.4097C66 15.0221 65.7734 14.67 65.4219 14.5118ZM44.4386 37.7705L45.4965 34.9657L46.5544 37.7705H44.4386ZM46.9935 29.7051C46.9935 30.5365 46.3223 31.2127 45.4965 31.2127C44.6712 31.2127 44 30.5365 44 29.7051C44 28.8731 44.6712 28.1969 45.4965 28.1969C46.3223 28.1969 46.9935 28.8731 46.9935 29.7051ZM53.4478 19.5471C53.3844 19.3625 53.2676 19.1981 53.1075 19.0784C51.1336 17.6047 48.9024 16.3304 46.4729 15.2798V8.13058L62.6313 15.4097L53.4478 19.5471Z" />
	</symbol>

	<symbol id="problem-icon3" viewBox="0 0 49 44">
		<path
			d="M45.65 7.9H35.5667V4.88889V4.88876C35.5639 2.6861 33.7668 0.902725 31.5501 0.9H31.55L17.45 0.9L17.4499 0.9C15.2332 0.902725 13.4361 2.6861 13.4333 4.88876V4.88889V7.9H3.35C1.99767 7.9 0.9 8.98886 0.9 10.3333L0.899999 27.6465L0.900001 27.647C0.905069 28.6525 1.52865 29.549 2.46667 29.9119V40.6667C2.46667 42.0111 3.56433 43.1 4.91667 43.1H44.0833C45.4357 43.1 46.5333 42.0111 46.5333 40.6667V29.9127C47.4713 29.5494 48.0953 28.6526 48.1 27.6469V27.6465V10.3333C48.1 8.98886 47.0023 7.9 45.65 7.9ZM46.3333 27.6465V27.6466C46.3337 27.9839 46.0837 28.2709 45.746 28.3184C45.746 28.3184 45.7459 28.3184 45.7459 28.3184L45.529 28.348L45.529 28.348L27.7333 30.7846V29.7778C27.7333 28.4333 26.6357 27.3444 25.2833 27.3444H23.7167C22.3643 27.3444 21.2667 28.4333 21.2667 29.7778V30.7846L3.2548 28.3184C3.25473 28.3184 3.25466 28.3184 3.25459 28.3184C2.91689 28.2712 2.66633 27.9841 2.66667 27.6466V27.6465V10.3333C2.66667 9.95971 2.97196 9.65556 3.35 9.65556H45.65C46.028 9.65556 46.3333 9.95971 46.3333 10.3333V27.6465ZM15.2 4.88889C15.2 3.65621 16.2068 2.65556 17.45 2.65556H31.55C32.7932 2.65556 33.8 3.65621 33.8 4.88889V7.9H32.4333V4.88889C32.4333 4.40347 32.0371 4.01111 31.55 4.01111H17.45C16.9629 4.01111 16.5667 4.40347 16.5667 4.88889V7.9H15.2V4.88889ZM30.6667 7.9H18.3333V5.76667H30.6667V7.9ZM44.7667 40.6667C44.7667 41.0403 44.4614 41.3444 44.0833 41.3444H4.91667C4.53863 41.3444 4.23333 41.0403 4.23333 40.6667V30.2243L21.2667 32.5569V34.4444C21.2667 35.7889 22.3643 36.8778 23.7167 36.8778H25.2833C26.6357 36.8778 27.7333 35.7889 27.7333 34.4444V32.5569L44.7667 30.2243V40.6667ZM25.9667 34.4444C25.9667 34.8181 25.6614 35.1222 25.2833 35.1222H23.7167C23.3386 35.1222 23.0333 34.8181 23.0333 34.4444V29.7778C23.0333 29.4042 23.3386 29.1 23.7167 29.1H25.2833C25.6614 29.1 25.9667 29.4042 25.9667 29.7778V34.4444Z"
			stroke-width="0.2" />
	</symbol>

	<symbol id="problem-icon4" viewBox="0 0 48 48">
		<path
			d="M46.8826 21.843L46.8825 21.8429L40.0618 15.549V5.22839V5.02839H39.8618H31.9307H31.7307V5.22839V7.862L24.1352 0.853018L23.9996 0.727859L23.864 0.853017L1.11752 21.8429L1.11736 21.843C0.715801 22.2144 0.691668 22.8404 1.06576 23.2408C1.43863 23.64 2.0663 23.6619 2.46862 23.2926L2.46901 23.2922L4.76571 21.1729V47V47.2H4.96571H17.6555H30.3453H43.0351H43.2351V47V21.1721L45.5315 23.2912C45.7227 23.4684 45.9664 23.5549 46.2075 23.5549C46.4733 23.5549 46.7389 23.4497 46.9341 23.2402C47.3085 22.8404 47.2841 22.2143 46.8826 21.843ZM35.1896 13.7486L35.3252 13.6016L35.1896 13.7486L39.7262 17.9344L41.2481 19.3386V45.2237H30.5445V28.823C30.5445 27.4346 29.4092 26.3083 28.0151 26.3083H19.9841C18.59 26.3083 17.4547 27.4346 17.4547 28.823V45.2237H6.75114V19.3394L23.9996 3.42298L35.1896 13.7486ZM33.7169 7.00468H38.0756V13.7164L33.7169 9.69469V7.00468ZM19.4409 45.2237V28.823C19.4409 28.5272 19.6833 28.2846 19.9841 28.2846H28.0151C28.3159 28.2846 28.5583 28.5272 28.5583 28.823V45.2237H19.4409Z"
			stroke-width="0.4" />
	</symbol>

	<symbol id="problem-icon5" viewBox="0 0 52 52">
		<path
			d="M47.2132 0.90013L47.2132 0.9H47.2081H20.6198V0.89987L20.6147 0.90013C18.3676 1.0148 16.6341 2.92093 16.7323 5.16853V39.3302C16.7323 39.3523 16.738 39.3706 16.7397 39.3762C16.7435 39.4775 16.7639 39.5777 16.8002 39.6725L16.8041 39.6859L16.8042 39.6862L16.8055 39.6906L16.8047 39.6908L16.8098 39.7025L18.7813 44.2327C18.7814 44.2329 18.7815 44.2332 18.7816 44.2334C19.0382 44.8486 19.6353 45.2531 20.3019 45.263H20.3034H20.8987L20.8987 48.4961L20.8987 48.497C20.9012 48.7456 20.9397 48.9923 21.0128 49.2293H11.0994V34.3305V34.3304C11.0979 32.9288 9.98837 31.7866 8.59957 31.7327V17.695C12.0988 17.2085 14.641 14.1058 14.4191 10.5699C14.1954 7.0046 11.2386 4.22746 7.66624 4.22746C4.09391 4.22746 1.13717 7.0046 0.913472 10.5699C0.691619 14.1058 3.23375 17.2085 6.73301 17.695V31.7327C5.34421 31.7866 4.2347 32.9288 4.23321 34.3304V34.3305V49.2293H1.83342C1.31798 49.2293 0.900191 49.6471 0.900191 50.1625C0.900191 50.678 1.31798 51.0957 1.83342 51.0957H50.1627C50.6782 51.0957 51.0959 50.6779 51.0959 50.1625C51.0959 49.6472 50.6782 49.2293 50.1627 49.2293H46.8155C46.8887 48.9922 46.9272 48.7455 46.9296 48.497V48.4961V45.263L47.5245 45.263L47.5261 45.263C48.1923 45.2528 48.789 44.849 49.0462 44.2345C49.0463 44.2342 49.0465 44.234 49.0466 44.2337L51.0185 39.7025L51.019 39.7028L51.0223 39.6923L51.0227 39.6911C51.023 39.6903 51.0232 39.6895 51.0235 39.6887C51.0245 39.6858 51.0253 39.6833 51.0259 39.6811C51.0269 39.6776 51.0277 39.6743 51.0281 39.6726C51.0647 39.5774 51.0853 39.4768 51.0889 39.3748C51.0908 39.3687 51.096 39.3512 51.096 39.3302V5.16859C51.1941 2.92086 49.4604 1.0147 47.2132 0.90013ZM51.0264 39.6771L51.0269 39.6758L51.0264 39.6771ZM40.1777 49.2294H27.6505C27.7237 48.9923 27.7622 48.7456 27.7646 48.4971V48.4962V45.2631H40.0635L40.0635 48.4962L40.0635 48.4971C40.066 48.7457 40.1045 48.9924 40.1777 49.2294ZM49.2297 5.15898L49.2295 5.15896V5.16635V38.3969H39.4303V36.8303V36.8302C39.4288 35.3951 38.2657 34.2321 36.8306 34.2305H36.8305H30.9977H30.9976C29.5625 34.2321 28.3994 35.3951 28.3979 36.8302V36.8303V38.3969H18.5987V5.16635H18.599L18.5985 5.15897C18.5084 3.94226 19.4099 2.8781 20.6243 2.76656H47.2035C48.418 2.8781 49.3197 3.94218 49.2297 5.15898ZM2.76675 10.9992C2.76675 8.2932 4.96037 6.09958 7.66634 6.09958C10.3723 6.09958 12.5659 8.2932 12.5659 10.9992C12.5659 13.7051 10.3724 15.8987 7.66645 15.8988C4.9616 15.8958 2.76978 13.7039 2.76675 10.9992ZM9.2328 49.2294H6.09977V34.3308C6.10029 33.926 6.42834 33.5979 6.83313 33.5974H8.49944C8.90423 33.5979 9.23228 33.926 9.2328 34.3308V49.2294ZM25.8981 48.4959C25.8976 48.9007 25.5695 49.2288 25.1648 49.2293H23.4984C23.0937 49.2288 22.7656 48.9007 22.7651 48.4959V45.263H25.8981V48.4959ZM45.0632 48.4959C45.0628 48.9008 44.7347 49.2289 44.3299 49.2293H42.6635C42.2586 49.2289 41.9305 48.9008 41.9302 48.496V45.263H45.0632V48.4959ZM19.0896 40.2634H48.7392L47.3753 43.3965H20.453L19.0896 40.2634ZM30.2645 38.3969V36.8305C30.265 36.4257 30.593 36.0976 30.9978 36.0971H36.8304C37.2352 36.0976 37.5632 36.4257 37.5637 36.8305V38.3969H30.2645Z"
			stroke-width="0.2" />
		<path
			d="M45.1633 4.23313H45.1632L22.6651 4.23313L22.665 4.23313C21.2299 4.23465 20.0668 5.39771 20.0653 6.83282V6.83292L20.0653 7.66615L20.0653 7.66626C20.0668 9.10137 21.2299 10.2644 22.665 10.2659H22.6651H45.1632H45.1633C46.5984 10.2644 47.7615 9.10137 47.763 7.66626V7.66615V6.83292V6.83281C47.7614 5.39771 46.5984 4.23465 45.1633 4.23313ZM45.8964 7.66605C45.896 8.07093 45.5679 8.39904 45.1631 8.39939H22.6652C22.2604 8.39887 21.9324 8.07087 21.9318 7.66612C21.9318 7.66609 21.9318 7.66606 21.9318 7.66603V6.83305C21.9318 6.83302 21.9318 6.83299 21.9318 6.83296C21.9324 6.42824 22.2604 6.10025 22.6651 6.09969C22.6651 6.09969 22.6652 6.09969 22.6652 6.09969H45.1631C45.1631 6.09969 45.1632 6.09969 45.1632 6.09969C45.5681 6.10018 45.8961 6.4282 45.8964 6.83301V7.66605Z"
			stroke-width="0.2" />
		<path
			d="M20.0653 33.4973L20.0653 33.4974C20.0675 35.3925 21.6032 36.9282 23.4982 36.9304H23.4983C25.3943 36.9304 26.9313 35.3933 26.9313 33.4973C26.9313 31.6013 25.3943 30.0643 23.4983 30.0643C21.6023 30.0643 20.0653 31.6013 20.0653 33.4973ZM23.4983 35.0639C22.6331 35.0639 21.9317 34.3625 21.9317 33.4973C21.9326 32.6325 22.6335 31.9317 23.4983 31.9308C24.3635 31.9308 25.0649 32.6321 25.0649 33.4973C25.0649 34.3625 24.3635 35.0639 23.4983 35.0639Z"
			stroke-width="0.2" />
		<path
			d="M44.33 30.0643H44.3298C42.4339 30.0643 40.8968 31.6013 40.8968 33.4973C40.8968 35.3933 42.4339 36.9304 44.3298 36.9304C46.2258 36.9304 47.7629 35.3933 47.7629 33.4973V33.4972C47.761 31.6021 46.2251 30.0663 44.33 30.0643ZM44.3297 35.0639C43.4646 35.0638 42.7633 34.3625 42.7633 33.4973C42.7633 32.6321 43.4646 31.9308 44.3298 31.9308C45.195 31.9308 45.8964 32.6321 45.8964 33.4972C45.8954 34.362 45.1946 35.0629 44.3297 35.0639Z"
			stroke-width="0.2" />
		<path
			d="M45.1633 11.7325H45.1632L22.6651 11.7325L22.665 11.7325C21.2299 11.734 20.0668 12.8971 20.0653 14.3322V14.3323L20.0653 25.998L20.0653 25.9981C20.0668 27.4333 21.2299 28.5963 22.665 28.5978H22.6651H45.1632H45.1633C46.5984 28.5963 47.7615 27.4333 47.763 25.9981V25.998V14.3323V14.3322C47.7614 12.8971 46.5984 11.734 45.1633 11.7325ZM45.8964 25.9978C45.896 26.4027 45.5679 26.7308 45.1631 26.7312H22.6652C22.2604 26.7307 21.9324 26.4027 21.9318 25.9979C21.9318 25.9979 21.9318 25.9978 21.9318 25.9978V14.3324C21.9318 14.3324 21.9318 14.3324 21.9318 14.3323C21.9324 13.9276 22.2604 13.5996 22.6651 13.5991C22.6651 13.5991 22.6652 13.5991 22.6652 13.5991H45.1631C45.1631 13.5991 45.1632 13.5991 45.1632 13.5991C45.5681 13.5996 45.8961 13.9276 45.8964 14.3324V25.9978Z"
			stroke-width="0.2" />
	</symbol>

	<symbol id="problem-icon6" viewBox="0 0 50 55">
		<path
			d="M48.6636 11.1085L25.8307 1.11914C25.6507 1.04056 25.4563 1 25.2599 1C25.0634 1 24.8691 1.04056 24.6891 1.11914L1.85623 11.1085C1.60186 11.2195 1.38537 11.4023 1.2333 11.6345C1.08122 11.8667 1.00014 12.1381 1 12.4157V40.9567C1 41.2199 1.07278 41.478 1.21029 41.7024C1.3478 41.9268 1.54468 42.1088 1.77917 42.2282L24.612 53.8444C24.8127 53.9467 25.0347 54 25.2599 54C25.4823 53.9996 25.7016 53.9479 25.9006 53.8487L48.7335 42.3752C48.97 42.2564 49.1687 42.0742 49.3076 41.8489C49.4464 41.6236 49.5199 41.3641 49.5198 41.0994V12.4157C49.5196 12.1381 49.4386 11.8667 49.2865 11.6345C49.1344 11.4023 48.9179 11.2195 48.6636 11.1085ZM25.2599 3.98323L44.5322 12.4157L25.2599 20.8481L20.2509 18.6562L27.8728 15.3212C28.1269 15.2099 28.343 15.027 28.4948 14.7948C28.6466 14.5627 28.7274 14.2913 28.7274 14.014C28.7274 13.7366 28.6466 13.4653 28.4948 13.2331C28.343 13.001 28.1269 12.8181 27.8728 12.7068L21.7493 10.0368C21.5693 9.95821 21.375 9.91765 21.1785 9.91765C20.9821 9.91765 20.7877 9.95821 20.6077 10.0368L10.5741 14.4221L5.99468 12.4157L25.2599 3.98323ZM12.4164 18.3437L15.2705 19.5923V25.8043L12.4164 24.3772V18.3437ZM14.1289 15.9805L21.1728 12.9023L23.7272 14.0168L16.6976 17.0978L14.1289 15.9805ZM3.85411 14.5976L9.56232 17.095V25.2592C9.56219 25.5244 9.63597 25.7843 9.77536 26.0099C9.91475 26.2355 10.1143 26.4178 10.3515 26.5364L16.0597 29.3905C16.2773 29.4992 16.5191 29.5505 16.7621 29.5395C17.0052 29.5285 17.2414 29.4556 17.4483 29.3276C17.6552 29.1996 17.8259 29.0209 17.9443 28.8083C18.0627 28.5958 18.1247 28.3565 18.1246 28.1133V20.8353L23.8328 23.3326V50.2454L3.85411 40.082V14.5976ZM26.6869 50.2583V23.3383L46.6657 14.5976V40.219L26.6869 50.2583Z"
			stroke="white" stroke-width="0.5" />
	</symbol>

	<symbol id="problem-icon7" viewBox="0 0 47 47">
		<path
			d="M23.5 46C35.9264 46 46 35.9264 46 23.5C46 11.0736 35.9264 1 23.5 1C11.0736 1 1 11.0736 1 23.5C1 35.9264 11.0736 46 23.5 46Z"
			stroke-width="2" stroke-linecap="round" stroke-linejoin="round" />
		<path d="M23.5 14.5V32.5" stroke-width="2" stroke-linecap="round" stroke-linejoin="round" />
		<path d="M14.5 23.5H32.5" stroke-width="2" stroke-linecap="round" stroke-linejoin="round" />
	</symbol>

	<symbol id="check-icon" viewBox="0 0 28 29">
		<path
			d="M22.9286 11.6786C22.9286 11.3452 22.8214 11.0714 22.6071 10.8571L20.9821 9.25C20.756 9.02381 20.4881 8.91071 20.1786 8.91071C19.869 8.91071 19.6012 9.02381 19.375 9.25L12.0893 16.5179L8.05357 12.4821C7.82738 12.256 7.55952 12.1429 7.25 12.1429C6.94048 12.1429 6.67262 12.256 6.44643 12.4821L4.82143 14.0893C4.60714 14.3036 4.5 14.5774 4.5 14.9107C4.5 15.2321 4.60714 15.5 4.82143 15.7143L11.2857 22.1786C11.5119 22.4048 11.7798 22.5179 12.0893 22.5179C12.4107 22.5179 12.6845 22.4048 12.9107 22.1786L22.6071 12.4821C22.8214 12.2679 22.9286 12 22.9286 11.6786ZM25.5893 7.69643C26.8155 9.79167 27.4286 12.0833 27.4286 14.5714C27.4286 17.0595 26.8155 19.3571 25.5893 21.4643C24.3631 23.5595 22.6964 25.2202 20.5893 26.4464C18.494 27.6726 16.2024 28.2857 13.7143 28.2857C11.2262 28.2857 8.92857 27.6726 6.82143 26.4464C4.72619 25.2202 3.06548 23.5595 1.83929 21.4643C0.613095 19.3571 0 17.0595 0 14.5714C0 12.0833 0.613095 9.79167 1.83929 7.69643C3.06548 5.58928 4.72619 3.92262 6.82143 2.69643C8.92857 1.47024 11.2262 0.857141 13.7143 0.857141C16.2024 0.857141 18.494 1.47024 20.5893 2.69643C22.6964 3.92262 24.3631 5.58928 25.5893 7.69643Z" />
	</symbol>

	<symbol id="pdf-icon" viewBox="0 0 21 25">
		<path
			d="M19.6607 5.51786C19.9107 5.76786 20.125 6.10714 20.3036 6.53571C20.4821 6.96429 20.5714 7.35714 20.5714 7.71428V23.1429C20.5714 23.5 20.4464 23.8036 20.1964 24.0536C19.9464 24.3036 19.6429 24.4286 19.2857 24.4286H1.28571C0.928571 24.4286 0.625 24.3036 0.375 24.0536C0.125 23.8036 0 23.5 0 23.1429V1.71428C0 1.35714 0.125 1.05357 0.375 0.803571C0.625 0.55357 0.928571 0.42857 1.28571 0.42857H13.2857C13.6429 0.42857 14.0357 0.517856 14.4643 0.696427C14.8929 0.874999 15.2321 1.08928 15.4821 1.33928L19.6607 5.51786ZM13.7143 2.25V7.28571H18.75C18.6607 7.02679 18.5625 6.84375 18.4554 6.73661L14.2634 2.54464C14.1563 2.4375 13.9732 2.33928 13.7143 2.25ZM18.8571 22.7143V9H13.2857C12.9286 9 12.625 8.875 12.375 8.625C12.125 8.375 12 8.07143 12 7.71428V2.14286H1.71429V22.7143H18.8571ZM11.9732 14.7723C12.2679 15.0045 12.6429 15.2545 13.0982 15.5223C13.625 15.4598 14.1473 15.4286 14.6652 15.4286C15.9777 15.4286 16.7679 15.6473 17.0357 16.0848C17.1786 16.2812 17.1875 16.5134 17.0625 16.7812C17.0625 16.7902 17.058 16.7991 17.0491 16.808C17.0402 16.817 17.0313 16.8259 17.0223 16.8348V16.8482C16.9688 17.1875 16.6518 17.3571 16.0714 17.3571C15.6429 17.3571 15.1295 17.2679 14.5312 17.0893C13.933 16.9107 13.3527 16.6741 12.7902 16.3795C10.817 16.5937 9.06696 16.9643 7.54018 17.4911C6.17411 19.8304 5.09375 21 4.29911 21C4.16518 21 4.04018 20.9688 3.92411 20.9062L3.60268 20.7455C3.59375 20.7366 3.56696 20.7143 3.52232 20.6786C3.43304 20.5893 3.40625 20.4286 3.44196 20.1964C3.52232 19.8393 3.77232 19.433 4.19196 18.9777C4.61161 18.5134 5.20089 18.0804 5.95982 17.6786C6.08482 17.5982 6.1875 17.625 6.26786 17.7589C6.28571 17.7768 6.29464 17.7946 6.29464 17.8125C6.75893 17.0536 7.23661 16.1741 7.72768 15.1741C8.33482 13.9598 8.79911 12.7902 9.12054 11.6652C8.90625 10.933 8.76786 10.2232 8.70536 9.53571C8.65179 8.83929 8.68304 8.26786 8.79911 7.82143C8.89732 7.46428 9.08482 7.28571 9.36161 7.28571H9.64286H9.65625C9.86161 7.28571 10.0179 7.35268 10.125 7.48661C10.2857 7.67411 10.3259 7.97768 10.2455 8.39732C10.2277 8.45089 10.2098 8.48661 10.192 8.50446C10.2009 8.53125 10.2054 8.56696 10.2054 8.61161V9.01339C10.1875 10.1116 10.125 10.9687 10.0179 11.5848C10.5089 13.0491 11.1607 14.1116 11.9732 14.7723ZM4.25893 20.2768C4.72321 20.0625 5.33482 19.3571 6.09375 18.1607C5.63839 18.5179 5.24554 18.8929 4.91518 19.2857C4.59375 19.6786 4.375 20.0089 4.25893 20.2768ZM9.58929 7.95536C9.45536 8.33036 9.44643 8.91964 9.5625 9.72321C9.57143 9.66071 9.60268 9.46429 9.65625 9.13393C9.65625 9.10714 9.6875 8.91518 9.75 8.55803C9.75893 8.52232 9.77679 8.48661 9.80357 8.45089C9.79464 8.44196 9.79018 8.43304 9.79018 8.42411C9.79018 8.41518 9.78571 8.41071 9.77679 8.41071C9.77679 8.40179 9.77679 8.39286 9.77679 8.38393C9.76786 8.1875 9.70982 8.02678 9.60268 7.90178C9.60268 7.91071 9.59821 7.91964 9.58929 7.92857V7.95536ZM7.92857 16.808C9.13393 16.3259 10.4018 15.9643 11.7321 15.7232C11.7143 15.7143 11.6563 15.6741 11.558 15.6027C11.4598 15.5223 11.3884 15.4598 11.3438 15.4152C10.6652 14.817 10.0982 14.0312 9.64286 13.058C9.40179 13.8259 9.03125 14.7054 8.53125 15.6964C8.26339 16.1964 8.0625 16.567 7.92857 16.808ZM16.5804 16.5937C16.3661 16.3795 15.7411 16.2723 14.7054 16.2723C15.3839 16.5223 15.9375 16.6473 16.3661 16.6473C16.4911 16.6473 16.5714 16.6429 16.6071 16.6339C16.6071 16.625 16.5982 16.6116 16.5804 16.5937Z" />
	</symbol>

	<symbol id="instruction-icon" viewBox="0 0 49 59" fill="none">
		<path
			d="M8.89161 22.7037C9.61298 22.7037 10.198 22.1188 10.198 21.3968C10.198 20.6754 9.61298 20.0904 8.89161 20.0904V14.8633H15.4251C16.1465 14.8633 16.7315 14.2783 16.7315 13.5569C16.7315 12.835 16.1465 12.25 15.4251 12.25H8.89161C7.44829 12.25 6.27832 13.4199 6.27832 14.8633V20.0904C6.27832 21.5338 7.44829 22.7037 8.89161 22.7037Z"
			fill="black" />
		<path
			d="M13.7355 17.8599C13.2228 17.3647 12.4076 17.3719 11.9039 17.8755C11.3997 18.3797 11.3925 19.1944 11.8878 19.707L14.5011 22.3209C15.0113 22.8305 15.8385 22.8305 16.3487 22.3209L22.8823 15.7874C23.3775 15.2748 23.3704 14.4595 22.8661 13.9559C22.3619 13.4516 21.5472 13.4444 21.0346 13.9397L15.4252 19.5491L13.7355 17.8599Z"
			fill="black" />
		<path
			d="M40.2513 16.1702H41.5576C42.2796 16.1702 42.8646 15.5853 42.8646 14.8633C42.8646 14.1419 42.2796 13.5569 41.5576 13.5569H40.2513C39.5293 13.5569 38.9443 14.1419 38.9443 14.8633C38.9443 15.5853 39.5293 16.1702 40.2513 16.1702Z"
			fill="black" />
		<path
			d="M28.4915 16.1702H35.025C35.7464 16.1702 36.3314 15.5853 36.3314 14.8633C36.3314 14.1419 35.7464 13.5569 35.025 13.5569H28.4915C27.7696 13.5569 27.1846 14.1419 27.1846 14.8633C27.1846 15.5853 27.7696 16.1702 28.4915 16.1702Z"
			fill="black" />
		<path
			d="M28.4915 21.3967H38.9447C39.6667 21.3967 40.2516 20.8118 40.2516 20.0904C40.2516 19.3684 39.6667 18.7834 38.9447 18.7834H28.4915C27.7696 18.7834 27.1846 19.3684 27.1846 20.0904C27.1846 20.8118 27.7696 21.3967 28.4915 21.3967Z"
			fill="black" />
		<path
			d="M8.89161 35.7701C9.61298 35.7701 10.198 35.1851 10.198 34.4632C10.198 33.7418 9.61298 33.1568 8.89161 33.1568V27.9302H15.4251C16.1465 27.9302 16.7315 27.3452 16.7315 26.6233C16.7315 25.9019 16.1465 25.3169 15.4251 25.3169H8.89161C7.44829 25.3169 6.27832 26.4869 6.27832 27.9302V33.1568C6.27832 34.6001 7.44829 35.7701 8.89161 35.7701Z"
			fill="black" />
		<path
			d="M21.0346 27.0061L15.4252 32.6155L13.7355 30.9264C13.2228 30.4311 12.4076 30.4383 11.9039 30.9419C11.3997 31.4461 11.3925 32.2614 11.8878 32.774L14.5011 35.3873C15.0113 35.8975 15.8385 35.8975 16.3487 35.3873L22.8823 28.8538C23.3775 28.3412 23.3704 27.5265 22.8661 27.0223C22.3619 26.518 21.5472 26.5109 21.0346 27.0061Z"
			fill="black" />
		<path
			d="M41.5576 26.6233H40.2513C39.5293 26.6233 38.9443 27.2083 38.9443 27.9302C38.9443 28.6516 39.5293 29.2366 40.2513 29.2366H41.5576C42.2796 29.2366 42.8646 28.6516 42.8646 27.9302C42.8646 27.2083 42.2796 26.6233 41.5576 26.6233Z"
			fill="black" />
		<path
			d="M28.4915 29.2366H35.025C35.7464 29.2366 36.3314 28.6516 36.3314 27.9302C36.3314 27.2083 35.7464 26.6233 35.025 26.6233H28.4915C27.7696 26.6233 27.1846 27.2083 27.1846 27.9302C27.1846 28.6516 27.7696 29.2366 28.4915 29.2366Z"
			fill="black" />
		<path
			d="M28.4915 34.4631H38.9447C39.6667 34.4631 40.2516 33.8781 40.2516 33.1567C40.2516 32.4348 39.6667 31.8498 38.9447 31.8498H28.4915C27.7696 31.8498 27.1846 32.4348 27.1846 33.1567C27.1846 33.8781 27.7696 34.4631 28.4915 34.4631Z"
			fill="black" />
		<path
			d="M8.89161 48.8364C9.61298 48.8364 10.198 48.2515 10.198 47.5301C10.198 46.8081 9.61298 46.2232 8.89161 46.2232V40.9966H15.4251C16.1465 40.9966 16.7315 40.4116 16.7315 39.6902C16.7315 38.9683 16.1465 38.3833 15.4251 38.3833H8.89161C7.44829 38.3833 6.27832 39.5532 6.27832 40.9966V46.2232C6.27832 47.6665 7.44829 48.8364 8.89161 48.8364Z"
			fill="black" />
		<path
			d="M21.0346 40.073L15.4252 45.6824L13.7355 43.9927C13.2228 43.4974 12.4076 43.5046 11.9039 44.0088C11.3997 44.5125 11.3925 45.3277 11.8878 45.8403L14.5011 48.4536C15.0113 48.9639 15.8385 48.9639 16.3487 48.4536L22.8823 41.9207C23.3775 41.4075 23.3704 40.5928 22.8661 40.0886C22.3619 39.585 21.5472 39.5778 21.0346 40.073Z"
			fill="black" />
		<path
			d="M41.5576 39.6902H40.2513C39.5293 39.6902 38.9443 40.2752 38.9443 40.9965C38.9443 41.7185 39.5293 42.3035 40.2513 42.3035H41.5576C42.2796 42.3035 42.8646 41.7185 42.8646 40.9965C42.8646 40.2752 42.2796 39.6902 41.5576 39.6902Z"
			fill="black" />
		<path
			d="M28.4915 42.3035H35.025C35.7464 42.3035 36.3314 41.7185 36.3314 40.9965C36.3314 40.2752 35.7464 39.6902 35.025 39.6902H28.4915C27.7696 39.6902 27.1846 40.2752 27.1846 40.9965C27.1846 41.7185 27.7696 42.3035 28.4915 42.3035Z"
			fill="black" />
		<path
			d="M28.4915 47.5301H38.9447C39.6667 47.5301 40.2516 46.9451 40.2516 46.2231C40.2516 45.5017 39.6667 44.9168 38.9447 44.9168H28.4915C27.7696 44.9168 27.1846 45.5017 27.1846 46.2231C27.1846 46.9451 27.7696 47.5301 28.4915 47.5301Z"
			fill="black" />
		<rect x="4.13457" y="4.74691" width="40.8844" height="49.3063" rx="2.14375" stroke="black" stroke-width="1.8375" />
		<rect x="0.91875" y="0.91875" width="47.1625" height="56.9625" rx="3.675" stroke="black" stroke-width="1.8375" />
	</symbol>

	<symbol id="complaint-icon" viewBox="0 0 49 49">
		<path
			d="M45.9375 2.02241C46.2167 2.02241 46.4845 2.13402 46.6819 2.33268C46.8793 2.53135 46.9902 2.8008 46.9902 3.08176V36.9811C46.9902 37.2621 46.8793 37.5315 46.6819 37.7302C46.4845 37.9289 46.2167 38.0405 45.9375 38.0405H40.8652V45.3529L29.7187 38.3477L29.2306 38.0405H3.0625C2.7833 38.0405 2.51553 37.9289 2.3181 37.7302C2.12068 37.5315 2.00977 37.2621 2.00977 36.9811V3.08176C2.00977 2.8008 2.12068 2.53135 2.3181 2.33268C2.51553 2.13402 2.7833 2.02241 3.0625 2.02241H45.9375ZM45.9375 0H3.0625C2.25027 0 1.47132 0.324685 0.896986 0.902627C0.322655 1.48057 0 2.26443 0 3.08176L0 36.9811C0 37.7985 0.322655 38.5823 0.896986 39.1603C1.47132 39.7382 2.25027 40.0629 3.0625 40.0629H28.6545L42.875 49V40.0629H45.9375C46.7497 40.0629 47.5287 39.7382 48.103 39.1603C48.6773 38.5823 49 37.7985 49 36.9811V3.08176C49 2.26443 48.6773 1.48057 48.103 0.902627C47.5287 0.324685 46.7497 0 45.9375 0V0Z"
			fill="black" />
		<path
			d="M26.0312 24.6541H22.9688V10.7862C22.9688 10.3775 23.1301 9.98555 23.4172 9.69658C23.7044 9.40761 24.0939 9.24527 24.5 9.24527C24.9061 9.24527 25.2956 9.40761 25.5828 9.69658C25.8699 9.98555 26.0312 10.3775 26.0312 10.7862V24.6541Z"
			fill="black" />
		<path d="M22.9688 27.7359H26.0312V30.8177H22.9688V27.7359Z" fill="black" />
	</symbol>

	<symbol id="security" viewBox="0 0 20 24">
		<path
			d="M17 13V3H10V20.7656C11.2396 20.1094 12.349 19.3958 13.3281 18.625C15.776 16.7083 17 14.8333 17 13ZM20 0.999998V13C20 13.8958 19.8229 14.7865 19.4688 15.6719C19.125 16.5469 18.6927 17.3281 18.1719 18.0156C17.6615 18.6927 17.0469 19.3542 16.3281 20C15.6198 20.6458 14.9635 21.1823 14.3594 21.6094C13.7552 22.0365 13.125 22.4375 12.4688 22.8125C11.8125 23.1979 11.3438 23.4583 11.0625 23.5938C10.7917 23.7292 10.5729 23.8333 10.4063 23.9063C10.2813 23.9688 10.1458 24 10 24C9.85417 24 9.71875 23.9688 9.59375 23.9063C9.42708 23.8333 9.20313 23.7292 8.92188 23.5938C8.65104 23.4583 8.1875 23.1979 7.53125 22.8125C6.875 22.4375 6.24479 22.0365 5.64063 21.6094C5.03646 21.1823 4.375 20.6458 3.65625 20C2.94792 19.3542 2.33333 18.6927 1.8125 18.0156C1.30208 17.3281 0.869792 16.5469 0.515625 15.6719C0.171875 14.7865 0 13.8958 0 13V0.999998C0 0.729165 0.0989583 0.494791 0.296875 0.296875C0.494792 0.0989575 0.729167 -1.19209e-06 1 -1.19209e-06H19C19.2708 -1.19209e-06 19.5052 0.0989575 19.7031 0.296875C19.901 0.494791 20 0.729165 20 0.999998Z" />
	</symbol>

	<symbol id="clip" viewBox="0 0 22 25">
		<path
			d="M21.9375 20.2841C21.9375 21.5028 21.526 22.5236 20.7031 23.3466C19.8802 24.1695 18.8594 24.5809 17.6406 24.5809C16.2344 24.5809 15.0104 24.0601 13.9688 23.0184L1.82813 10.8934C0.651042 9.69552 0.0625 8.28406 0.0625 6.65906C0.0625 5.00281 0.635417 3.59656 1.78125 2.44031C2.92708 1.28406 4.32813 0.705931 5.98438 0.705931C7.63021 0.705931 9.05208 1.29447 10.25 2.47156L19.7031 11.9403C19.8073 12.0445 19.8594 12.1591 19.8594 12.2841C19.8594 12.4507 19.6979 12.6955 19.375 13.0184C19.0625 13.3309 18.8229 13.4872 18.6563 13.4872C18.5208 13.4872 18.401 13.4351 18.2969 13.3309L8.82813 3.84656C8.00521 3.04447 7.0625 2.64343 6 2.64343C4.89583 2.64343 3.96354 3.03406 3.20313 3.81531C2.44271 4.59656 2.0625 5.53927 2.0625 6.64343C2.0625 7.73718 2.45833 8.67989 3.25 9.47156L15.375 21.6122C16.0313 22.2684 16.7865 22.5966 17.6406 22.5966C18.3073 22.5966 18.8594 22.3778 19.2969 21.9403C19.7344 21.5028 19.9531 20.9507 19.9531 20.2841C19.9531 19.4299 19.625 18.6747 18.9688 18.0184L9.89063 8.94031C9.61979 8.69031 9.30729 8.56531 8.95313 8.56531C8.65104 8.56531 8.40104 8.66427 8.20312 8.86218C8.00521 9.0601 7.90625 9.3101 7.90625 9.61218C7.90625 9.94552 8.03646 10.2528 8.29688 10.5341L14.7031 16.9403C14.8073 17.0445 14.8594 17.1591 14.8594 17.2841C14.8594 17.4507 14.6979 17.6955 14.375 18.0184C14.0521 18.3413 13.8073 18.5028 13.6406 18.5028C13.5156 18.5028 13.401 18.4507 13.2969 18.3466L6.89063 11.9403C6.23438 11.3049 5.90625 10.5288 5.90625 9.61218C5.90625 8.75802 6.20313 8.03406 6.79688 7.44031C7.39063 6.84656 8.11458 6.54968 8.96875 6.54968C9.88542 6.54968 10.6615 6.87781 11.2969 7.53406L20.375 16.6122C21.4167 17.633 21.9375 18.857 21.9375 20.2841Z" />
	</symbol>

	<symbol id="menu-icon1" viewBox="0 0 25 24">
		<path
			d="M23.1709 0H1.65333C0.741818 0 0 0.746667 0 1.65818V15.3115C0 15.5394 0.184242 15.7236 0.412121 15.7236H24.4073C24.6352 15.7236 24.8194 15.5394 24.8194 15.3115V1.65818C24.8242 0.746667 24.0824 0 23.1709 0ZM23.9952 14.8945H0.829091V1.65818C0.829091 1.20242 1.20242 0.829091 1.65818 0.829091H23.1709C23.6267 0.829091 24 1.20242 24 1.65818V14.8945H23.9952Z"
			fill="black" />
		<path
			d="M24.4121 14.8945H0.412121C0.184242 14.8945 0 15.0788 0 15.3067V17.377C0 18.2885 0.741818 19.0303 1.65333 19.0303H23.1661C24.0776 19.0303 24.8194 18.2885 24.8194 17.377V15.3067C24.8242 15.0836 24.64 14.8945 24.4121 14.8945ZM23.9951 17.377C23.9951 17.8327 23.6218 18.206 23.1661 18.206H1.65333C1.19758 18.206 0.824242 17.8327 0.824242 17.377V15.7236H23.9951V17.377Z"
			fill="black" />
		<path
			d="M13.6533 16.5527H11.1709C10.943 16.5527 10.7588 16.737 10.7588 16.9649C10.7588 17.1927 10.943 17.377 11.1709 17.377H13.6533C13.8812 17.377 14.0655 17.1927 14.0655 16.9649C14.0655 16.737 13.8812 16.5527 13.6533 16.5527Z"
			fill="black" />
		<path
			d="M22.753 1.6582H2.06935C1.84147 1.6582 1.65723 1.84245 1.65723 2.07032V15.3115C1.65723 15.5394 1.84147 15.7237 2.06935 15.7237H22.7578C22.9857 15.7237 23.17 15.5394 23.17 15.3115V2.07032C23.17 1.84245 22.9809 1.6582 22.753 1.6582ZM22.3409 14.8946H2.48147V2.48245H22.3409V14.8946Z"
			fill="black" />
		<path
			d="M17.7901 21.5176H7.03613C6.3525 21.5176 5.79492 22.0752 5.79492 22.7588C5.79492 23.4424 6.3525 24 7.03613 24H17.7949C18.4786 24 19.0361 23.4424 19.0361 22.7588C19.0361 22.0752 18.4737 21.5176 17.7901 21.5176ZM17.7901 23.1709H7.03613C6.80826 23.1709 6.62401 22.9867 6.62401 22.7588C6.62401 22.5309 6.80826 22.3467 7.03613 22.3467H17.7949C18.0228 22.3467 18.207 22.5309 18.207 22.7588C18.207 22.9867 18.018 23.1709 17.7901 23.1709Z"
			fill="black" />
		<path
			d="M16.9649 21.5175C15.5928 21.5175 14.8946 20.543 14.8946 18.623C14.8946 18.3951 14.7103 18.2109 14.4825 18.2109H10.3467C10.1188 18.2109 9.93457 18.3951 9.93457 18.623C9.93457 20.543 9.23639 21.5175 7.86427 21.5175C7.63639 21.5175 7.45215 21.7018 7.45215 21.9297C7.45215 22.1575 7.63639 22.3418 7.86427 22.3418H16.9649C17.1928 22.3418 17.377 22.1575 17.377 21.9297C17.377 21.7018 17.1928 21.5175 16.9649 21.5175ZM9.87639 21.5175C10.3855 20.9551 10.6861 20.1115 10.7443 19.0351H14.0752C14.1334 20.1115 14.434 20.9551 14.9431 21.5175H9.87639Z"
			fill="black" />
		<path
			d="M19.7733 12.1939L18.7745 11.1951L19.3321 10.6375C19.4339 10.5357 19.4775 10.3854 19.4387 10.2448C19.4048 10.1042 19.2981 9.9927 19.1575 9.94906L15.0218 8.70785C14.8763 8.66422 14.7163 8.703 14.6097 8.80967C14.503 8.91634 14.4642 9.07634 14.5078 9.22179L15.7491 13.3575C15.7927 13.4982 15.9042 13.6048 16.0448 13.6388C16.1854 13.6727 16.3357 13.6339 16.4375 13.5321L17.0242 12.9454L18.023 13.9442C18.1006 14.0218 18.2072 14.0654 18.3139 14.0654C18.4206 14.0654 18.5272 14.0218 18.6048 13.9442L19.7733 12.7757C19.9333 12.6157 19.9333 12.3539 19.7733 12.1939ZM18.3091 13.0715L17.3975 12.16C17.2909 12.0533 17.1551 12 17.0145 12C16.8739 12 16.7381 12.0533 16.6315 12.16L16.3309 12.4606L15.5163 9.72119L18.2557 10.5406L17.9357 10.8606C17.8484 10.9479 17.8 11.0691 17.8 11.1903C17.8 11.3163 17.8484 11.4327 17.9357 11.52L18.8957 12.48L18.3091 13.0715Z"
			fill="black" />
	</symbol>

	<symbol id="menu-icon2" viewBox="0 0 31 31">
		<path
			d="M27.9091 16.2563C28.183 15.8502 28.3431 15.3612 28.3431 14.8355V14.3498C28.3431 12.9449 27.2001 11.8019 25.7951 11.8019C25.0942 11.8019 24.4584 12.0865 23.9973 12.5462C22.8041 8.99761 19.4461 6.43433 15.5005 6.43433C11.555 6.43433 8.197 8.99755 7.00382 12.5462C6.54268 12.0865 5.90698 11.8019 5.20594 11.8019C3.80102 11.8019 2.65798 12.9449 2.65798 14.3498V14.8355C2.65798 15.3612 2.81807 15.8502 3.092 16.2563C1.32826 16.628 0 18.1959 0 20.0686V21.2877C0 21.622 0.271138 21.8932 0.60549 21.8932H3.75404C4.08839 21.8932 4.35953 21.622 4.35953 21.2877C4.35953 20.9533 4.08839 20.6822 3.75404 20.6822H1.21098V20.0686C1.21098 18.588 2.41554 17.3834 3.89615 17.3834H6.76187C6.99426 18.4055 7.40157 19.362 7.95111 20.219L1.04253 27.1276C0.157912 28.0122 0.157912 29.4518 1.04259 30.3365C1.48496 30.7789 2.06593 31 2.64702 31C3.22811 31 3.8092 30.7788 4.25157 30.3365L8.06028 26.5278C8.29673 26.2913 8.29673 25.9079 8.06028 25.6714C7.82378 25.435 7.4405 25.435 7.20394 25.6714L3.39529 29.4802C2.98264 29.8928 2.3114 29.8927 1.89882 29.4802C1.4863 29.0677 1.4863 28.3964 1.89882 27.9838L8.68073 21.2019C10.3257 23.1311 12.7725 24.3568 15.5005 24.3568C19.7588 24.3568 23.3326 21.3712 24.2392 17.3834H27.1049C28.5855 17.3834 29.7901 18.588 29.7901 20.0686V20.6822H24.0985C23.7642 20.6822 23.493 20.9533 23.493 21.2877C23.493 21.622 23.7642 21.8932 24.0985 21.8932H30.3956C30.7299 21.8932 31.0011 21.622 31.0011 21.2877V20.0686C31.0011 18.1959 29.6728 16.628 27.9091 16.2563ZM6.54292 14.8356C6.54292 15.5727 5.94319 16.1725 5.20594 16.1725C4.4687 16.1725 3.86896 15.5727 3.86896 14.8356V14.3499C3.86896 13.6127 4.4687 13.0129 5.20594 13.0129C5.94319 13.0129 6.54292 13.6127 6.54292 14.3499V14.8356ZM15.5005 23.1459C11.2271 23.1459 7.75027 19.6691 7.75027 15.3956C7.75027 11.1221 11.2271 7.64531 15.5005 7.64531C19.774 7.64531 23.2508 11.1221 23.2508 15.3956C23.2508 19.6691 19.774 23.1459 15.5005 23.1459ZM27.1321 14.8356C27.1321 15.5727 26.5323 16.1725 25.7951 16.1725C25.0578 16.1725 24.4581 15.5727 24.4581 14.8356V14.3499C24.4581 13.6127 25.0578 13.0129 25.7951 13.0129C26.5323 13.0129 27.1321 13.6127 27.1321 14.3499V14.8356Z"
			fill="black" />
		<path
			d="M9.68103 24.0519C9.56841 23.9392 9.41219 23.8745 9.25295 23.8745C9.09371 23.8745 8.93749 23.9392 8.82487 24.0519C8.71231 24.1645 8.64746 24.3207 8.64746 24.4799C8.64746 24.6392 8.71225 24.7954 8.82487 24.908C8.93749 25.0206 9.09371 25.0854 9.25295 25.0854C9.41219 25.0854 9.56841 25.0206 9.68103 24.908C9.79359 24.7954 9.85844 24.6392 9.85844 24.4799C9.85844 24.3207 9.79365 24.1645 9.68103 24.0519Z"
			fill="black" />
		<path
			d="M15.5117 0C15.1774 0 14.9062 0.271138 14.9062 0.60549V2.66561C14.9062 3.00002 15.1774 3.2711 15.5117 3.2711C15.8461 3.2711 16.1172 2.99996 16.1172 2.66561V0.60549C16.1172 0.271138 15.8461 0 15.5117 0Z"
			fill="black" />
		<path
			d="M15.9398 4.23417C15.8272 4.12155 15.6715 4.05676 15.5117 4.05676C15.3524 4.05676 15.1963 4.12149 15.0837 4.23417C14.971 4.34685 14.9062 4.50301 14.9062 4.66225C14.9062 4.8215 14.971 4.97771 15.0837 5.09027C15.1963 5.20289 15.3524 5.26774 15.5117 5.26774C15.6716 5.26774 15.8272 5.20296 15.9398 5.09027C16.0524 4.97771 16.1172 4.8215 16.1172 4.66225C16.1172 4.50301 16.0524 4.34679 15.9398 4.23417Z"
			fill="black" />
		<path
			d="M20.6467 2.3751C20.4102 2.13872 20.0269 2.13872 19.7904 2.3751L18.7262 3.43931C18.4897 3.67576 18.4897 4.05915 18.7262 4.29566C18.8445 4.41385 18.9994 4.473 19.1544 4.473C19.3094 4.473 19.4643 4.41385 19.5825 4.29566L20.6467 3.23145C20.8832 2.995 20.8832 2.61161 20.6467 2.3751Z"
			fill="black" />
		<path
			d="M12.2859 3.44661L11.2114 2.37217C10.9749 2.13579 10.5916 2.13579 10.3551 2.37217C10.1186 2.60862 10.1186 2.99201 10.3551 3.22852L11.4296 4.30296C11.5478 4.42115 11.7028 4.48031 11.8577 4.48031C12.0127 4.48031 12.1676 4.42115 12.2859 4.30296C12.5223 4.06652 12.5223 3.68312 12.2859 3.44661Z"
			fill="black" />
		<path
			d="M15.5002 8.96069C11.8944 8.96069 8.96094 11.8942 8.96094 15.5C8.96094 17.3716 9.75147 19.0618 11.0158 20.2549C11.0375 20.2783 11.0607 20.3003 11.0861 20.3203C12.2502 21.3872 13.8004 22.0393 15.5002 22.0393C17.2 22.0393 18.7503 21.3872 19.9144 20.3203C19.9398 20.3004 19.963 20.2783 19.9846 20.2549C21.249 19.0618 22.0395 17.3716 22.0395 15.5C22.0395 11.8942 19.106 8.96069 15.5002 8.96069ZM15.5002 20.8283C14.2552 20.8283 13.1086 20.3989 12.2005 19.6807C12.8438 18.4634 14.0976 17.6975 15.5002 17.6975C16.9029 17.6975 18.1566 18.4634 18.8 19.6807C17.8919 20.3989 16.7453 20.8283 15.5002 20.8283ZM14.2243 15.2106V14.7402C14.2243 14.0366 14.7967 13.4642 15.5002 13.4642C16.2038 13.4642 16.7762 14.0366 16.7762 14.7402V15.2106C16.7762 15.9141 16.2038 16.4865 15.5002 16.4865C14.7967 16.4865 14.2243 15.9141 14.2243 15.2106ZM19.6857 18.7938C19.131 17.9087 18.3191 17.2338 17.3688 16.849C17.7533 16.411 17.9872 15.8378 17.9872 15.2106V14.7402C17.9872 13.369 16.8715 12.2533 15.5002 12.2533C14.129 12.2533 13.0133 13.369 13.0133 14.7402V15.2106C13.0133 15.8378 13.2471 16.411 13.6316 16.849C12.6814 17.2339 11.8695 17.9087 11.3148 18.7938C10.5993 17.8866 10.1719 16.7423 10.1719 15.5C10.1719 12.562 12.5622 10.1717 15.5002 10.1717C18.4382 10.1717 20.8285 12.562 20.8285 15.5C20.8285 16.7423 20.4011 17.8866 19.6857 18.7938Z"
			fill="black" />
	</symbol>

	<symbol id="menu-icon3" viewBox="0 0 35 35">
		<path
			d="M0.0774172 3.20864L2.4098 7.29007C2.48847 7.42799 2.62015 7.52777 2.77414 7.56638L4.95013 8.11038L12.4133 15.5736L13.2379 14.7492L5.65795 7.16942C5.58336 7.09458 5.48981 7.04157 5.38739 7.01591L3.29655 6.49134L1.31077 3.01436L3.01328 1.31184L6.4917 3.29955L7.01651 5.39039C7.04194 5.49305 7.09518 5.58683 7.16978 5.66143L14.7498 13.2414L15.5742 12.4168L8.11098 4.95361L7.56698 2.77882C7.52837 2.62459 7.42859 2.49267 7.29067 2.41375L3.209 0.0816125C2.98138 -0.0479108 2.69499 -0.00953351 2.50934 0.175397L0.177198 2.50778C-0.0103709 2.69223 -0.0511467 2.9791 0.0774172 3.20864Z"
			fill="black" />
		<path d="M24.319 11.4913L11.4916 24.319L10.667 23.4943L23.4946 10.667L24.319 11.4913Z" fill="black" />
		<path
			d="M9.24641 24.7728C9.14087 24.5972 8.95138 24.49 8.74655 24.49H5.24822C5.04362 24.49 4.85389 24.5972 4.74859 24.7728L2.99931 27.688C2.88825 27.8727 2.88825 28.1037 2.99931 28.2886L4.74859 31.2038C4.85389 31.3792 5.04362 31.4866 5.24822 31.4866H8.74655C8.95138 31.4866 9.14087 31.3792 9.24641 31.2038L10.9955 28.2886C11.1065 28.1037 11.1065 27.8727 10.9955 27.688L9.24641 24.7728ZM8.41674 30.3204H5.57826L4.17893 27.9883L5.57826 25.6559H8.41674L9.81607 27.9883L8.41674 30.3204Z"
			fill="black" />
		<path
			d="M27.9871 13.9947C31.838 14.0077 34.9706 10.8963 34.9835 7.04534C34.9855 6.45912 34.9135 5.87531 34.7693 5.30709C34.6916 4.99455 34.3753 4.80434 34.0627 4.88206C33.9601 4.90772 33.8665 4.96073 33.7917 5.03533L30.1622 8.66246L27.2824 7.70279L26.322 4.82377L29.9516 1.19352C30.1792 0.965655 30.1789 0.596514 29.9511 0.368888C29.876 0.293813 29.7815 0.240564 29.6781 0.215139C25.9435 -0.730621 22.1497 1.53004 21.2039 5.26439C21.0603 5.83094 20.9885 6.41331 20.9905 6.99784C20.9919 7.45693 21.0392 7.91458 21.1322 8.36408L8.36289 21.1332C7.9134 21.0403 7.45575 20.9931 6.9969 20.9914C3.13255 20.9914 0 24.1239 0 27.9883C0 31.8524 3.13255 34.985 6.9969 34.985C10.861 34.985 13.9936 31.8524 13.9936 27.9883C13.9921 27.5292 13.9446 27.0716 13.8518 26.6221L16.9088 23.5651L18.2458 24.902C18.4736 25.1297 18.8425 25.1297 19.0704 24.902L19.3618 24.6104C19.6175 24.3564 20.0308 24.3564 20.2865 24.6104C20.5419 24.8651 20.5424 25.2786 20.2877 25.5341C20.2874 25.5343 20.287 25.5348 20.2865 25.5353L19.995 25.8267C19.7674 26.0543 19.7674 26.4235 19.995 26.6511L26.9505 33.6065C28.7799 35.4527 31.7594 35.4661 33.6056 33.6367C35.4515 31.8073 35.4649 28.8276 33.6355 26.9816C33.6257 26.9715 33.6156 26.9615 33.6056 26.9514L26.6502 19.9962C26.4225 19.7686 26.0534 19.7686 25.8258 19.9962L25.5343 20.2877C25.2784 20.5419 24.8654 20.5419 24.6094 20.2877C24.3542 20.0329 24.3535 19.6194 24.6082 19.3642C24.6087 19.3637 24.6092 19.3635 24.6094 19.363L24.9011 19.0713C25.1287 18.8437 25.1287 18.4746 24.9011 18.2469L23.5641 16.91L26.6211 13.853C27.0706 13.9458 27.5283 13.9933 27.9871 13.9947ZM30.278 33.819C29.8544 33.8183 29.4344 33.7418 29.0379 33.5928L33.5916 29.0389C34.2788 30.8668 33.3542 32.9056 31.5262 33.5928C31.1273 33.7427 30.7045 33.8195 30.278 33.819ZM23.6726 18.665C23.0269 19.4352 23.1281 20.5832 23.8983 21.2286C24.5751 21.7959 25.5617 21.7954 26.2378 21.2269L32.7812 27.776C32.8522 27.8473 32.9186 27.9223 32.9829 27.9986L27.9977 32.9838C27.9212 32.9198 27.8461 32.8533 27.7748 32.7821L21.2265 26.2333C21.8722 25.4631 21.771 24.3151 21.0008 23.6697C20.3239 23.1022 19.3371 23.1029 18.661 23.6711L17.7281 22.7383L22.7395 17.7344L23.6726 18.665ZM26.027 12.8007L12.8 26.0251C12.6549 26.1699 12.5966 26.3803 12.646 26.5791C13.446 29.7206 11.5477 32.9157 8.40607 33.7154C5.26464 34.5153 2.0695 32.6171 1.26957 29.4754C0.469882 26.334 2.36812 23.1389 5.50978 22.3389C6.4601 22.0971 7.45575 22.0971 8.40607 22.3389C8.60491 22.3876 8.81478 22.3293 8.96014 22.1852L22.184 8.9606C22.3289 8.81573 22.3872 8.60537 22.3373 8.40677C21.5429 5.30205 23.4157 2.1412 26.5204 1.34655C27.1071 1.19664 27.7139 1.13907 28.3184 1.17673L25.2427 4.25363C25.0865 4.40954 25.0318 4.64052 25.1016 4.84992L26.2676 8.34849C26.3259 8.52238 26.4626 8.6591 26.6367 8.71691L30.1353 9.8831C30.3444 9.9529 30.5754 9.89845 30.7316 9.74254L33.8073 6.66684C33.8142 6.77813 33.8178 6.88823 33.8178 6.99784C33.8341 10.2016 31.2504 12.812 28.0466 12.8286C27.5513 12.831 27.0577 12.77 26.578 12.6472C26.3791 12.5976 26.1688 12.6556 26.0239 12.8005H26.027V12.8007Z"
			fill="black" />
		<path d="M30.1492 29.325L29.3246 30.1497L23.4941 24.3192L24.3185 23.4946L30.1492 29.325Z" fill="black" />
	</symbol>

	<symbol id="menu-icon4" viewBox="0 0 25 24">
		<path
			d="M24.6431 10.95C24.4632 10.95 24.3283 10.8061 24.3283 10.6352V6.67791C24.3283 6.49803 24.1844 6.36312 24.0135 6.36312H21.5582C21.4772 6.36312 21.3963 6.32715 21.3333 6.27319L15.1546 0.0944351C15.0287 -0.0314784 14.8308 -0.0314784 14.7049 0.0944351L11.2243 3.57504C11.0984 3.70096 10.9005 3.70096 10.7746 3.57504L8.91287 1.71332C8.78696 1.58741 8.58909 1.58741 8.46318 1.71332L3.91231 6.26419C3.84935 6.32715 3.76841 6.35413 3.68746 6.35413H0.314784C0.134907 6.35413 0 6.49803 0 6.66891V23.6852C0 23.8651 0.143901 24 0.314784 24H23.9955C24.1754 24 24.3103 23.8561 24.3103 23.6852V17.2277C24.3103 17.0478 24.4542 16.9129 24.6251 16.9129C24.8049 16.9129 24.9399 16.769 24.9399 16.5981V11.2737C24.9578 11.0939 24.8139 10.95 24.6431 10.95ZM18.7341 6.35413H11.1164C10.8286 6.35413 10.6936 6.01237 10.8915 5.8145L14.7049 2.00112C14.8308 1.87521 15.0287 1.87521 15.1546 2.00112L18.968 5.8145C19.1568 6.01237 19.0219 6.35413 18.7341 6.35413ZM8.91287 3.62001L9.81225 4.51939C9.93817 4.64531 9.93817 4.84317 9.81225 4.96908L8.53513 6.26419C8.47218 6.32715 8.39123 6.35413 8.31029 6.35413H6.50253C6.21473 6.35413 6.07982 6.01237 6.27768 5.8145L8.47217 3.62001C8.58909 3.4941 8.78696 3.4941 8.91287 3.62001ZM22.9702 22.6509H1.66386C1.48398 22.6509 1.34907 22.507 1.34907 22.3361V8.01799C1.34907 7.83811 1.49297 7.7032 1.66386 7.7032H22.6464C22.8263 7.7032 22.9612 7.8471 22.9612 8.01799V10.6262C22.9612 10.8061 22.8173 10.941 22.6464 10.941H14.48C14.3002 10.941 14.1653 11.0849 14.1653 11.2558V16.5801C14.1653 16.76 14.3092 16.8949 14.48 16.8949H22.6464C22.8263 16.8949 22.9612 17.0388 22.9612 17.2097L22.9702 22.6509ZM23.294 15.5638H15.8291C15.6492 15.5638 15.5143 15.4199 15.5143 15.249V12.6228C15.5143 12.4429 15.6582 12.308 15.8291 12.308H23.294C23.4739 12.308 23.6088 12.4519 23.6088 12.6228V15.249C23.6088 15.4199 23.4649 15.5638 23.294 15.5638Z"
			fill="black" />
		<path
			d="M16.8103 13.2524H18.0425C18.2223 13.2524 18.3572 13.3963 18.3572 13.5672V14.2777C18.3572 14.4576 18.2133 14.5925 18.0425 14.5925H16.8103C16.6304 14.5925 16.4955 14.4486 16.4955 14.2777V13.5762C16.4865 13.3963 16.6304 13.2524 16.8103 13.2524Z"
			fill="black" />
	</symbol>

	<symbol id="menu-icon5" viewBox="0 0 27 19">
		<path
			d="M24.2369 0.655029H2.28896C1.02681 0.655029 0 1.67894 0 2.93727V15.7517C0 17.0101 1.02681 18.034 2.28896 18.034H24.2369C25.499 18.034 26.5258 17.0101 26.5258 15.7517V2.93727C26.5257 1.67894 25.499 0.655029 24.2369 0.655029ZM25.6112 15.7517H25.6111C25.6111 16.5058 24.9945 17.1193 24.2368 17.1193H2.28896C1.53119 17.1193 0.914662 16.506 0.914662 15.7517V2.93727C0.914662 2.18319 1.53119 1.56969 2.28896 1.56969H24.2369C24.9947 1.56969 25.6112 2.18306 25.6112 2.93727V15.7517Z"
			fill="black" />
		<path d="M12.8053 12.0885H3.20117V13.0032H12.8053V12.0885Z" fill="black" />
		<path d="M23.3248 12.0885H13.7207V13.0032H23.3248V12.0885Z" fill="black" />
		<path
			d="M4.56941 9.34449H7.31722H8.23188H9.60775C10.3621 9.34449 10.976 8.72901 10.976 7.97269V6.60037V5.68571V5.22818C10.976 4.47186 10.3621 3.85638 9.60775 3.85638H8.23188H7.31722H4.56941C3.81507 3.85638 3.20117 4.47186 3.20117 5.22818V6.60037V7.51503V7.97256C3.20117 8.72901 3.81507 9.34449 4.56941 9.34449ZM8.23188 4.77105H9.60775C9.85784 4.77105 10.0613 4.97599 10.0613 5.22818V5.68571H8.23188V4.77105ZM8.23188 6.60037H10.0612V7.97269H10.0613C10.0613 8.2291 9.86218 8.42982 9.60775 8.42982H8.23188V6.60037ZM4.11583 5.22818C4.11583 4.97177 4.31498 4.77105 4.56941 4.77105H7.31722V5.68571V6.60037H4.11583V5.22818ZM4.11583 7.51503H7.31722V8.42969H4.56941C4.31933 8.42969 4.11583 8.22475 4.11583 7.97256V7.51503Z"
			fill="black" />
	</symbol>


	<symbol id="menu-icon6" viewBox="0 0 21 22">
		<path
			d="M11.341 0H9.65907C4.33305 0 0 4.33304 0 9.65907C0 14.9851 4.33304 19.3181 9.659 19.3181H11.3409C12.1722 19.3181 12.995 19.2125 13.7925 19.0038L16.2771 21.487C16.4042 21.614 16.5741 21.6815 16.747 21.6815C16.8326 21.6815 16.919 21.665 17.0012 21.6309C17.2495 21.528 17.4114 21.2857 17.4114 21.0169V17.1721C18.4633 16.3202 19.3371 15.2441 19.9504 14.0419C20.6469 12.6765 21 11.2019 21 9.65907C21 4.33304 16.667 0 11.341 0ZM16.347 16.3172C16.1804 16.4427 16.0823 16.6393 16.0823 16.848V19.4132L14.456 17.7879C14.3295 17.6615 14.1598 17.5933 13.9862 17.5933C13.9211 17.5933 13.8553 17.603 13.7911 17.6227C13.0001 17.8658 12.1757 17.989 11.341 17.989H9.65907C5.06585 17.989 1.32911 14.2522 1.32911 9.65907C1.32911 5.06592 5.06592 1.32911 9.65907 1.32911H11.341C15.9341 1.32911 19.6709 5.06592 19.6709 9.65907C19.6709 12.2994 18.4594 14.7262 16.347 16.3172Z"
			fill="black" />
		<path
			d="M13.4933 7.27168C13.3974 5.88043 12.2759 4.75892 10.8846 4.66303C10.0959 4.60887 9.34318 4.87489 8.76708 5.41272C8.19888 5.9431 7.87305 6.69285 7.87305 7.46979C7.87305 7.83682 8.17064 8.13434 8.5376 8.13434C8.90457 8.13434 9.20216 7.83682 9.20216 7.46979C9.20216 7.05384 9.36976 6.66833 9.674 6.38436C9.97797 6.10066 10.3752 5.96024 10.7932 5.98909C11.5261 6.03959 12.1168 6.63032 12.1673 7.36312C12.2184 8.10324 11.7328 8.7573 11.0128 8.91839C10.4295 9.04891 10.0221 9.55583 10.0221 10.1511V11.7477C10.0221 12.1147 10.3197 12.4122 10.6866 12.4122C11.0537 12.4122 11.3512 12.1147 11.3511 11.7477V10.2042C12.6902 9.88067 13.5886 8.65535 13.4933 7.27168Z"
			fill="black" />
		<path
			d="M11.1559 13.9065C11.0323 13.7829 10.8608 13.7118 10.686 13.7118C10.5113 13.7118 10.3398 13.7829 10.2162 13.9065C10.0926 14.0301 10.0215 14.2016 10.0215 14.3763C10.0215 14.5518 10.0927 14.7232 10.2162 14.8469C10.3398 14.9705 10.5113 15.0409 10.686 15.0409C10.8608 15.0409 11.0323 14.9705 11.1559 14.8469C11.2795 14.7226 11.3506 14.5518 11.3506 14.3763C11.3506 14.2016 11.2794 14.0301 11.1559 13.9065Z"
			fill="black" />
	</symbol>

	<symbol id="menu-icon7" viewBox="0 0 19 21">
		<path
			d="M2.9096 17.1953C3.0651 17.0398 3.14286 16.8557 3.14286 16.6429C3.14286 16.4301 3.0651 16.2459 2.9096 16.0904C2.75409 15.9349 2.56994 15.8571 2.35714 15.8571C2.14435 15.8571 1.96019 15.9349 1.80469 16.0904C1.64918 16.2459 1.57143 16.4301 1.57143 16.6429C1.57143 16.8557 1.64918 17.0398 1.80469 17.1953C1.96019 17.3508 2.14435 17.4286 2.35714 17.4286C2.56994 17.4286 2.75409 17.3508 2.9096 17.1953ZM17.2857 9.57143C17.2857 9.15402 17.1261 8.78981 16.8069 8.47879C16.4877 8.1596 16.1235 8 15.7143 8H11.3929C11.3929 7.5253 11.5893 6.87463 11.9821 6.04799C12.375 5.21317 12.5714 4.55431 12.5714 4.07143C12.5714 3.26934 12.4405 2.67597 12.1786 2.29129C11.9167 1.90662 11.3929 1.71428 10.6071 1.71428C10.3943 1.92708 10.2388 2.27493 10.1406 2.75781C10.0424 3.2407 9.91555 3.75632 9.76005 4.30469C9.61272 4.84486 9.37128 5.29092 9.03571 5.64286C8.85566 5.8311 8.54055 6.2035 8.0904 6.76004C8.05766 6.80097 7.96354 6.92373 7.80804 7.12835C7.65253 7.33296 7.52158 7.50074 7.41518 7.6317C7.31696 7.76265 7.17783 7.93862 6.99777 8.1596C6.81771 8.3724 6.65402 8.55246 6.5067 8.69978C6.35938 8.83891 6.19978 8.98214 6.0279 9.12946C5.86421 9.27679 5.70052 9.38728 5.53683 9.46094C5.38132 9.5346 5.2381 9.57143 5.10714 9.57143H4.71429V17.4286H5.10714C5.21354 17.4286 5.3404 17.4408 5.48772 17.4654C5.64323 17.49 5.77827 17.5186 5.89286 17.5513C6.01563 17.5759 6.17113 17.6209 6.35938 17.6864C6.5558 17.7437 6.69903 17.7887 6.78906 17.8214C6.88728 17.8542 7.0346 17.9074 7.23103 17.981C7.42746 18.0465 7.54613 18.0874 7.58705 18.1038C9.31399 18.7013 10.7135 19 11.7857 19H13.2712C14.8426 19 15.6283 18.3166 15.6283 16.9498C15.6283 16.737 15.6079 16.5078 15.567 16.2623C15.8125 16.1313 16.0048 15.9185 16.144 15.6239C16.2913 15.3211 16.365 15.0182 16.365 14.7154C16.365 14.4126 16.2913 14.1302 16.144 13.8683C16.5778 13.4591 16.7946 12.9721 16.7946 12.4074C16.7946 12.2028 16.7537 11.9777 16.6719 11.7321C16.59 11.4784 16.4877 11.282 16.365 11.1429C16.6269 11.1347 16.8438 10.9423 17.0156 10.5658C17.1957 10.1894 17.2857 9.85789 17.2857 9.57143ZM18.8571 9.55915C18.8571 10.2876 18.6566 10.9546 18.2556 11.5603C18.3292 11.8304 18.3661 12.1127 18.3661 12.4074C18.3661 13.0376 18.2106 13.6269 17.8996 14.1752C17.9241 14.3471 17.9364 14.5231 17.9364 14.7031C17.9364 15.5298 17.6908 16.2582 17.1998 16.8884C17.208 18.026 16.8601 18.9222 16.1563 19.577C15.4524 20.24 14.5234 20.5714 13.3694 20.5714H12.9275H11.7857C11 20.5714 10.2225 20.4773 9.45313 20.2891C8.69196 20.109 7.80804 19.843 6.80134 19.4911C5.85193 19.1637 5.2872 19 5.10714 19H1.57143C1.13765 19 0.765253 18.8486 0.454241 18.5458C0.151414 18.2347 0 17.8624 0 17.4286V9.57143C0 9.13765 0.151414 8.76934 0.454241 8.46652C0.765253 8.15551 1.13765 8 1.57143 8H4.93527C5.22991 7.80357 5.79055 7.16927 6.61719 6.0971C7.09189 5.48326 7.52976 4.95945 7.9308 4.52567C8.12723 4.32106 8.27046 3.97321 8.36049 3.48214C8.45871 2.98289 8.58557 2.46317 8.74107 1.92299C8.89658 1.38281 9.1503 0.940847 9.50223 0.597097C9.82143 0.29427 10.1897 0.142856 10.6071 0.142856C11.2946 0.142856 11.9126 0.277901 12.4609 0.54799C13.0093 0.809895 13.4267 1.22321 13.7132 1.78795C13.9996 2.35268 14.1429 3.11384 14.1429 4.07143C14.1429 4.83259 13.9464 5.6183 13.5536 6.42857H15.7143C16.5655 6.42857 17.3021 6.73958 17.9241 7.36161C18.5461 7.98363 18.8571 8.71615 18.8571 9.55915Z"
			fill="black" />
	</symbol>


</svg>