<svg viewBox="0 0 26 29" xmlns="http://www.w3.org/2000/svg">
<path fill="currentColor" d="M11.166 6.18196C11.166 5.88313 11.3861 5.64089 11.6576 5.64089H12.5087V4.70418C12.5087 4.40534 12.7288 4.1631 13.0003 4.1631C13.2718 4.1631 13.4919 4.40534 13.4919 4.70418V5.64089H14.343C14.6145 5.64089 14.8346 5.88313 14.8346 6.18196C14.8346 6.4808 14.6145 6.72304 14.343 6.72304H13.4919V7.65981C13.4919 7.95864 13.2718 8.20088 13.0003 8.20088C12.7288 8.20088 12.5087 7.95864 12.5087 7.65981V6.72304H11.6576C11.3861 6.72304 11.166 6.4808 11.166 6.18196ZM23 24.4969C23 24.7957 22.7799 25.0379 22.5084 25.0379H3.4916C3.22009 25.0379 3 24.7957 3 24.4969C3 24.198 3.22009 23.9558 3.4916 23.9558H5.37714V6.18191C5.37714 5.88307 5.59723 5.64083 5.86874 5.64083H9.39474C9.63548 3.68749 11.1606 2.17719 13.0003 2.17719C14.8399 2.17719 16.3651 3.68755 16.6057 5.64089L20.1318 5.64083C20.2621 5.64083 20.3872 5.69786 20.4794 5.79931C20.5715 5.90077 20.6234 6.03842 20.6234 6.18191V23.9558H22.5084C22.7799 23.9558 23 24.198 23 24.4969ZM10.3449 6.18196C10.3449 7.79351 11.5361 9.10459 13.0003 9.10459C14.4645 9.10459 15.6556 7.79351 15.6556 6.18196C15.6556 4.57042 14.4645 3.25934 13.0003 3.25934C11.5361 3.25934 10.3449 4.57042 10.3449 6.18196ZM12.5087 20.0585H9.97297V23.9558H12.5084L12.5087 20.0585ZM16.0276 20.0585H13.4918L13.4916 23.9558H16.0276V20.0585H16.0276ZM19.6402 6.72299H16.6058C16.3651 8.67633 14.84 10.1867 13.0003 10.1867C11.1607 10.1867 9.63548 8.67633 9.39479 6.72299H6.36034V23.9558H8.98976V19.5174C8.98976 19.2186 9.20985 18.9763 9.48137 18.9763H13.0003H16.5192C16.7907 18.9763 17.0108 19.2186 17.0108 19.5174V23.9558H19.6402V6.72299H19.6402ZM16.379 11.4928H18.0541C18.3257 11.4928 18.5458 11.7351 18.5458 12.0339V16.8575C18.5458 17.1564 18.3257 17.3986 18.0541 17.3986H16.379C16.1075 17.3986 15.8874 17.1564 15.8874 16.8575V12.0339C15.8874 11.7351 16.1075 11.4928 16.379 11.4928ZM16.8706 16.3164H17.5625V12.575H16.8706V16.3164ZM14.3294 12.0339V16.8575C14.3294 17.1564 14.1093 17.3986 13.8378 17.3986H12.1627C11.8912 17.3986 11.6711 17.1564 11.6711 16.8575V12.0339C11.6711 11.7351 11.8912 11.4928 12.1627 11.4928H13.8378C14.1093 11.4928 14.3294 11.7351 14.3294 12.0339ZM13.3462 12.575H12.6543V16.3164H13.3462V12.575ZM10.1132 12.0339V16.8575C10.1132 17.1564 9.89313 17.3986 9.62162 17.3986H7.94649C7.67498 17.3986 7.45489 17.1564 7.45489 16.8575V12.0339C7.45489 11.7351 7.67498 11.4928 7.94649 11.4928H9.62162C9.89313 11.4928 10.1132 11.7351 10.1132 12.0339ZM9.13002 12.575H8.43809V16.3164H9.13002V12.575Z"/>
</svg>
