<svg width="174" height="56" viewBox="0 0 174 56" fill="none" xmlns="http://www.w3.org/2000/svg">
<path d="M89.9925 18.0246C89.8881 25.7297 96.9524 30.0295 102.242 32.5749C107.706 35.1892 109.515 36.8747 109.515 39.2138C109.48 42.7912 105.165 44.3735 101.128 44.4423C94.0989 44.5455 89.9925 42.5504 86.7561 41.0713L84.2157 52.801C87.4869 54.2801 93.5073 55.5872 99.7713 55.656C114.492 55.656 124.096 48.4668 124.166 37.3563C124.236 23.2531 104.4 22.4619 104.539 16.1327C104.574 14.2064 106.418 12.1769 110.49 11.6609C112.508 11.3858 118.041 11.2138 124.305 14.0688L126.776 2.71746C123.366 1.51353 119.016 0.343994 113.622 0.343994C99.8061 0.343994 90.0621 7.60198 89.9925 18.0246ZM150.405 1.30714C147.726 1.30714 145.464 2.85505 144.454 5.22851L123.435 54.7961H138.121L141.044 46.8157H159.001L160.706 54.7961H173.652L162.342 1.30714H150.405ZM152.458 15.7887L156.704 35.8772H145.081L152.458 15.7887ZM72.1749 1.30714L60.5865 54.8305H74.5761L86.1645 1.30714H72.1749ZM51.4341 1.30714L36.8529 37.7346L30.9717 6.77643C30.2757 3.33662 27.5613 1.30714 24.4989 1.30714H0.695656L0.347656 2.88945C5.25446 3.95579 10.7877 5.64129 14.1633 7.42999C16.2165 8.53073 16.8081 9.49387 17.5041 12.1425L28.6749 54.8305H43.4649L66.1545 1.30714H51.4341Z" fill="url(#paint0_linear)"/>
<defs>
<linearGradient id="paint0_linear" x1="0.347726" y1="28.0027" x2="173.652" y2="28.0027" gradientUnits="userSpaceOnUse">
<stop stop-color="#222357"/>
<stop offset="1" stop-color="#254AA5"/>
</linearGradient>
</defs>
</svg>
