<svg width="334" height="101" viewBox="0 0 334 101" fill="none" xmlns="http://www.w3.org/2000/svg">
<path d="M277.427 18.1931C282.68 18.1931 287.677 19.3964 292.161 21.5489C292.864 21.8662 293.572 22.2459 294.273 22.626L291.198 25.3496L286.589 20.6001L278.646 27.5652L273.969 22.5619L259.364 35.5439L268.714 45.7393L265.064 48.9047L274.289 59.1001L270.639 62.2642L283.835 76.7658L291.646 69.6732L298.439 77.2741C297.092 78.2874 295.619 79.3027 294.02 80.1877C289.15 82.9103 283.513 84.4904 277.492 84.4904C258.978 84.4904 243.927 69.6123 243.927 51.3133C243.862 33.1379 258.915 18.1931 277.427 18.1931ZM271.277 49.2855L279.284 42.1928L286.46 50.108L278.451 57.2001L271.277 49.2855ZM276.98 62.9639L284.922 55.8084L292.161 63.723L284.153 70.816L276.98 62.9639ZM265.579 35.7981L273.584 28.7054L280.758 36.6207L272.751 43.713L265.579 35.7981ZM280.245 31.9974L286.203 26.6785L291.585 32.5679L285.627 37.9496L280.245 31.9974ZM290.88 56.3771L296.836 51.0579L302.217 57.0087L296.259 62.3313L290.88 56.3771ZM296.132 68.3466L302.09 63.0263L307.467 68.9154L301.512 74.2965L296.132 68.3466ZM298.566 40.9895L302.537 37.4429L306.123 41.3705L302.153 44.9157L298.566 40.9895ZM293.442 29.2745L297.413 25.6658L301.002 29.6546L297.027 33.2007L293.442 29.2745ZM303.626 52.7054L307.597 49.1592L311.248 53.0855L307.214 56.6307L303.626 52.7054ZM285.755 43.9031L291.713 38.5838L297.092 44.4719L291.137 49.7921L285.755 43.9031Z" fill="#036CB5"/>
<mask id="mask0" style="mask-type:alpha" maskUnits="userSpaceOnUse" x="22" y="31" width="36" height="32">
<path d="M22.0527 31.9678V62.5758H57.0644V31.9678H22.0527Z" fill="white"/>
</mask>
<g mask="url(#mask0)">
<path d="M39.6233 41.0311H39.3212L33.6488 62.5758H29.0124L22.0527 31.9678H26.8632L31.6749 54.8065H31.9753L37.559 31.9678H41.3835L47.3549 54.8065H47.6555L52.0379 31.9678H57.0644L50.1029 62.5758H45.4631L39.6233 41.0311Z" fill="#036CB5"/>
</g>
<path d="M63.1681 49.5454H73.0036C72.7902 45.0139 70.5981 43.2023 68.2792 43.2023C65.6589 43.2023 63.6385 45.2309 63.1681 49.5454ZM76.4398 57.6639V60.9454C74.5071 62.0675 71.9309 62.9315 68.8361 62.9315C61.6211 62.9315 58.6572 58.4418 58.6572 51.6216C58.6572 45.057 61.9642 40.3081 68.4081 40.3081C73.7763 40.3081 77.0861 43.8073 77.0861 50.8424V52.4399H63.0819C63.0819 57.6188 65.1856 59.9074 69.6119 59.9074C71.9309 59.9075 74.0788 59.0858 76.4398 57.6639Z" fill="#036CB5"/>
<path d="M87.0778 59.4699C88.4527 60.0742 89.9574 60.1636 91.0331 60.1636C94.2112 60.1636 96.6142 58.1748 96.6142 51.1831C96.6142 45.7004 94.6385 43.9303 91.7615 43.9303C90.0418 43.9303 88.7966 44.4066 87.0778 45.3545V59.4699H87.0778ZM87.123 42.1608C88.4085 41.4724 90.599 40.5626 92.9197 40.5626C98.247 40.5626 101.126 44.2751 101.126 51.1831C101.126 59.2565 97.2587 63.185 91.0332 63.185C88.7546 63.185 85.2322 62.4509 82.6533 61.0664V30.9364L87.123 29.8586V42.1608H87.123Z" fill="#036CB5"/>
<path d="M120.46 56.0812H120.675L129.866 31.9487H135.196V62.5591H130.557V40.3677H130.169L121.405 62.5591H118.658L109.891 40.8865H109.506V62.5591H105.64V31.9487H110.839L120.46 56.0812Z" fill="#036CB5"/>
<path d="M154.15 51.6203C154.15 45.7927 151.789 43.3332 148.868 43.3332C146.034 43.3332 143.583 45.7928 143.583 51.6203C143.583 57.5353 145.82 59.9074 148.868 59.9074C151.916 59.9074 154.15 57.5353 154.15 51.6203ZM139.074 51.6203C139.074 44.0627 143.199 40.3081 148.868 40.3081C154.54 40.3081 158.663 44.0627 158.663 51.6203C158.663 59.001 154.754 62.9315 148.868 62.9315C142.983 62.9315 139.074 59.001 139.074 51.6203Z" fill="#036CB5"/>
<path d="M162.062 43.5051C163.994 42.3376 168.077 40.3081 173.016 40.3081C178.171 40.3081 180.1 42.3376 180.1 46.783V62.413H175.636V47.7772C175.636 44.3675 173.963 43.7632 171.77 43.7632C170.053 43.7632 167.86 44.5414 166.529 45.3183V62.413H162.062V43.5051H162.062Z" fill="#036CB5"/>
<path d="M189.556 49.5454H199.393C199.181 45.0139 196.988 43.2023 194.668 43.2023C192.047 43.2023 190.031 45.2309 189.556 49.5454ZM202.828 57.6639V60.9454C200.897 62.0675 198.319 62.9315 195.225 62.9315C188.013 62.9315 185.047 58.4418 185.047 51.6216C185.047 45.057 188.353 40.3081 194.797 40.3081C200.169 40.3081 203.478 43.8073 203.478 50.8424V52.4399H189.472C189.472 57.6188 191.577 59.9074 196.002 59.9074C198.319 59.9075 200.47 59.0858 202.828 57.6639Z" fill="#036CB5"/>
<path d="M221.32 40.3081H225.917L218.142 61.8906C215.991 67.8487 213.373 70.9573 208.434 70.9573V67.4196C211.357 67.4196 213.158 65.0873 214.192 61.8906L205.943 40.3081H210.67L216.168 56.1946H216.425L221.32 40.3081Z" fill="#036CB5"/>
<path d="M68.4508 82.4717V80.6075C70.0437 81.4163 71.5595 81.8223 72.9958 81.8223C74.192 81.8223 75.1085 81.603 75.7488 81.1602C76.3892 80.7203 76.7099 80.1255 76.7099 79.3736C76.7099 78.622 76.4466 78.0582 75.9197 77.6831C75.3942 77.3086 74.4118 76.8447 72.9749 76.2953C72.4761 76.1079 72.1575 75.9859 72.0137 75.9277C71.8721 75.8711 71.5947 75.7541 71.1814 75.5815C70.7693 75.4092 70.499 75.278 70.3714 75.1919C70.2429 75.1028 70.0267 74.9723 69.7201 74.8013C69.4145 74.6261 69.2084 74.4719 69.101 74.3371C68.9955 74.1983 68.8487 74.0231 68.6636 73.814C68.479 73.6056 68.354 73.3984 68.2897 73.1874C68.2263 72.9783 68.165 72.7363 68.1087 72.4611C68.0524 72.1856 68.0234 71.8904 68.0234 71.5725C68.0234 70.3442 68.4757 69.3572 69.3785 68.6049C70.2828 67.8553 71.5303 67.4795 73.1244 67.4795C74.5324 67.4795 75.9349 67.7389 77.328 68.2593V70.2297C75.9767 69.5642 74.6251 69.2348 73.2733 69.2348C72.3202 69.2348 71.6087 69.4337 71.1392 69.8378C70.6697 70.2418 70.4346 70.7764 70.4346 71.4419C70.4346 72.15 70.6697 72.6869 71.1392 73.0561C71.6087 73.4267 72.4487 73.8347 73.6583 74.2812C75.7347 75.0469 77.165 75.7399 77.9469 76.362C78.73 76.9811 79.1211 77.9082 79.1211 79.1343C79.1211 80.4211 78.584 81.4728 77.5098 82.2889C76.4355 83.1049 74.9599 83.5132 73.0813 83.5132C71.3606 83.5132 69.8165 83.1647 68.4508 82.4717ZM90.1653 83.1851H88.1382L87.9884 81.9286C86.7639 82.9408 85.541 83.4472 84.3175 83.4472C83.2935 83.4472 82.5002 83.1697 81.9386 82.6121C81.3756 82.0561 81.095 81.3538 81.095 80.4993C81.095 80.0509 81.1765 79.6225 81.3404 79.2105C81.5043 78.7983 81.7747 78.3988 82.1514 78.0089C82.5283 77.6183 83.0973 77.305 83.8582 77.0656C84.6192 76.8259 85.5339 76.7076 86.6013 76.7076H87.9248V76.1227C87.9248 75.1551 87.747 74.4962 87.3911 74.1405C87.0345 73.7864 86.4373 73.6095 85.5982 73.6095C84.5739 73.6095 83.3144 74.0337 81.8211 74.8881V73.1552C83.3578 72.4476 84.8653 72.0909 86.3447 72.0909C87.7812 72.0909 88.7782 72.3888 89.3322 72.9822C89.8878 73.5731 90.1653 74.4699 90.1653 75.666V83.1851ZM87.9462 78.2236H86.8142C84.4806 78.2236 83.3144 78.9248 83.3144 80.3264C83.3144 80.8193 83.4702 81.173 83.7837 81.3982C84.0974 81.6228 84.4886 81.7336 84.9586 81.7336C85.5548 81.7336 86.1317 81.5889 86.6865 81.2993C87.2412 81.0123 87.6616 80.6802 87.9462 80.3044V78.2236H87.9462ZM93.633 87.52V73.6759C94.2594 73.1979 94.9981 72.8135 95.8526 72.5252C96.7068 72.2385 97.5448 72.0909 98.3712 72.0909C101.329 72.0909 102.81 73.9047 102.81 77.5318C102.81 79.4094 102.426 80.8468 101.657 81.8417C100.889 82.8396 99.7874 83.3357 98.3492 83.3357C97.353 83.3357 96.5207 83.0828 95.8526 82.5805V87.52H93.633ZM95.8312 74.4101V80.9777C96.1158 81.2509 96.4745 81.4544 96.9086 81.5925C97.3429 81.7296 97.7238 81.798 98.0506 81.798C98.8326 81.798 99.4487 81.4929 99.8971 80.8791C100.345 80.264 100.568 79.1484 100.568 77.5318C100.568 76.2174 100.338 75.2541 99.8759 74.6508C99.4135 74.0419 98.8116 73.74 98.0717 73.74C97.2335 73.74 96.4867 73.9626 95.8312 74.4101ZM107.9 72.2024V83.1851H105.681V72.7429L107.9 72.2024ZM105.339 69.0155C105.339 68.6256 105.484 68.2837 105.776 67.9858C106.068 67.6899 106.406 67.5413 106.789 67.5413C107.174 67.5413 107.512 67.6899 107.804 67.9858C108.096 68.2837 108.242 68.6256 108.242 69.0155C108.242 69.4055 108.096 69.7497 107.804 70.0469C107.512 70.3402 107.174 70.4888 106.789 70.4888C106.406 70.4888 106.068 70.3402 105.776 70.0469C105.484 69.7497 105.339 69.4055 105.339 69.0155ZM116.212 81.9285C117.237 81.9285 118.367 81.5527 119.605 80.8031V82.4496C118.468 83.1151 117.208 83.4471 115.828 83.4471C114.092 83.4471 112.816 82.9484 111.998 81.9512C111.179 80.9537 110.771 79.5606 110.771 77.7695C110.771 76.0641 111.191 74.6905 112.029 73.6539C112.869 72.6139 114.063 72.0908 115.614 72.0908C116.981 72.0908 118.04 72.54 118.795 73.4365C119.549 74.3335 119.925 75.6459 119.925 77.3789V78.1818H112.969C112.969 79.468 113.232 80.4152 113.758 81.0181C114.284 81.6274 115.103 81.9285 116.212 81.9285ZM115.55 73.5451C114.882 73.5451 114.32 73.8127 113.864 74.345C113.41 74.8802 113.125 75.6762 113.011 76.7276H117.898C117.84 75.6601 117.592 74.8641 117.151 74.3371C116.711 73.8084 116.177 73.5451 115.55 73.5451ZM122.753 83.1851V73.6963C124.503 72.6265 126.317 72.0909 128.195 72.0909C129.462 72.0909 130.364 72.3529 130.905 72.8734C131.446 73.3938 131.716 74.2164 131.716 75.3421V83.1851H129.497V75.8409C129.497 75.0469 129.333 74.5116 129.006 74.2387C128.679 73.9626 128.203 73.8265 127.576 73.8265C126.723 73.8265 125.855 74.0875 124.973 74.607V83.1851H122.753V83.1851ZM137.297 72.614H140.669L140.135 74.0876H137.297V79.806C137.297 81.2509 137.909 81.9729 139.132 81.9729C139.602 81.9729 140.078 81.8726 140.563 81.6698V83.0552C139.894 83.316 139.097 83.4472 138.172 83.4472C137.105 83.4472 136.323 83.1394 135.824 82.5236C135.327 81.9124 135.077 81.1062 135.077 80.1071V71.1825L137.297 69.5557V72.614H137.297ZM145.013 72.2024V83.1851H142.793V72.7429L145.013 72.2024ZM142.452 69.0155C142.452 68.6256 142.598 68.2837 142.888 67.9858C143.18 67.6899 143.517 67.5413 143.903 67.5413C144.286 67.5413 144.625 67.6899 144.916 67.9858C145.208 68.2837 145.354 68.6256 145.354 69.0155C145.354 69.4055 145.208 69.7497 144.916 70.0469C144.625 70.3402 144.286 70.4888 143.903 70.4888C143.517 70.4888 143.18 70.3402 142.888 70.0469C142.598 69.7497 142.452 69.4055 142.452 69.0155ZM160.122 72.9595V74.6905C159.055 73.9692 157.973 73.6095 156.879 73.6095C156.324 73.6095 155.869 73.7177 155.512 73.935C155.157 74.15 154.979 74.4982 154.979 74.9723C154.979 75.4227 155.174 75.7791 155.565 76.0461C155.957 76.3141 156.572 76.585 157.412 76.8575C157.882 77.0167 158.233 77.1403 158.467 77.2264C158.703 77.3152 159.012 77.4599 159.396 77.6607C159.78 77.8639 160.069 78.0641 160.261 78.268C160.453 78.4708 160.627 78.7365 160.784 79.0698C160.94 79.4019 161.018 79.7691 161.018 80.1739C161.018 81.1714 160.623 81.9654 159.835 82.5578C159.045 83.15 157.987 83.4472 156.665 83.4472C155.185 83.4472 153.954 83.1293 152.972 82.4918V80.8032C154.224 81.5528 155.37 81.9286 156.409 81.9286C157.973 81.9286 158.756 81.4101 158.756 80.3689C158.756 80.1676 158.71 79.9783 158.617 79.806C158.525 79.6328 158.418 79.492 158.298 79.3832C158.176 79.275 157.98 79.1527 157.71 79.0133C157.439 78.8789 157.212 78.7783 157.027 78.7122C156.843 78.6477 156.551 78.5429 156.153 78.3988C155.569 78.1819 155.107 77.9948 154.765 77.835C154.423 77.6749 154.083 77.4697 153.741 77.2179C153.399 76.965 153.149 76.6632 152.994 76.3177C152.838 75.9721 152.759 75.5592 152.759 75.0831C152.759 74.4762 152.901 73.9577 153.186 73.5254C153.47 73.0891 153.841 72.7787 154.295 72.5917C154.751 72.4033 155.167 72.2724 155.544 72.2024C155.921 72.1277 156.295 72.0909 156.665 72.0909C157.875 72.0909 159.027 72.3806 160.122 72.9595ZM171.913 83.1851H169.886L169.735 81.9286C168.511 82.9408 167.289 83.4472 166.066 83.4472C165.041 83.4472 164.248 83.1697 163.686 82.6121C163.123 82.0561 162.843 81.3538 162.843 80.4993C162.843 80.0509 162.925 79.6225 163.089 79.2105C163.252 78.7983 163.522 78.3988 163.9 78.0089C164.277 77.6183 164.845 77.305 165.606 77.0656C166.368 76.8259 167.282 76.7076 168.348 76.7076H169.673V76.1227C169.673 75.1551 169.494 74.4962 169.14 74.1405C168.782 73.7864 168.185 73.6095 167.347 73.6095C166.322 73.6095 165.062 74.0337 163.569 74.8881V73.1552C165.106 72.4476 166.613 72.0909 168.093 72.0909C169.53 72.0909 170.525 72.3888 171.08 72.9822C171.635 73.5731 171.913 74.4699 171.913 75.666V83.1851H171.913ZM169.695 78.2236H168.563C166.229 78.2236 165.062 78.9248 165.062 80.3264C165.062 80.8193 165.219 81.173 165.532 81.3982C165.845 81.6228 166.235 81.7336 166.706 81.7336C167.303 81.7336 167.878 81.5889 168.435 81.2993C168.989 81.0123 169.41 80.6802 169.695 80.3044V78.2236H169.695ZM177.495 72.614H180.866L180.331 74.0876H177.495V79.806C177.495 81.2509 178.106 81.9729 179.328 81.9729C179.798 81.9729 180.273 81.8726 180.759 81.6698V83.0552C180.09 83.316 179.294 83.4472 178.367 83.4472C177.302 83.4472 176.519 83.1394 176.021 82.5236C175.523 81.9124 175.273 81.1062 175.273 80.1071V71.1825L177.495 69.5557V72.614H177.495Z" fill="#B6B6B6"/>
</svg>
